<?xml version="1.0" encoding="UTF-8"?>
<!DOCTYPE svg PUBLIC "-//W3C//DTD SVG 1.1//EN" "http://www.w3.org/Graphics/SVG/1.1/DTD/svg11.dtd">
<!-- Creator: CorelDRAW -->
<svg xmlns="http://www.w3.org/2000/svg" xml:space="preserve" width="154.154mm" height="199.802mm" style="shape-rendering:geometricPrecision; text-rendering:geometricPrecision; image-rendering:optimizeQuality; fill-rule:evenodd; clip-rule:evenodd"
viewBox="0 0 154.154 199.802"
 xmlns:xlink="http://www.w3.org/1999/xlink">
 <defs>
  <style type="text/css">
   <![CDATA[
    .fil1 {fill:#070707}
    .fil0 {fill:#FDFDFD}
    .fil4 {fill:#FDFDFD;fill-opacity:0.000000}
    .fil3 {fill:#FDFDFD;fill-opacity:0.200000}
    .fil2 {fill:#FDFDFD;fill-opacity:0.400000}
   ]]>
  </style>
 </defs>
 <g id="Layer_x0020_1">
  <metadata id="CorelCorpID_0Corel-Layer"/>
  <g id="_41538688">
   <path id="_39053384" class="fil0" d="M21.5343 15.0348l-15.494 1.27c-0.1327,0.5697 -0.254,0.584 -0.254,1.27 0,0.7808 0.7441,1.016 1.524,1.016l2.032 0c1.3683,0 4.3199,-0.7763 6.3448,-0.7672 1.9238,0.0086 4.6733,-0.2759 6.5525,-0.5595 3.9858,-0.6014 8.7328,-0.8953 13.0127,-1.2113 4.1587,-0.3071 8.632,-1.2417 12.9433,-1.2807 4.2741,-0.0386 8.8928,-0.685 13.4754,-1.0026 1.295,-0.0898 1.2593,-0.5212 3.037,-0.519 1.0195,0.0013 2.5544,0.0998 3.5084,-0.0476 1.5774,-0.2438 4.61,-0.7213 6.3987,-0.7133 2.5377,0.0114 10.8421,-0.4595 13.3146,-0.9094 2.4726,-0.4499 25.6158,-2.4156 26.0606,-2.1334l7.874 -1.016c1.0199,-0.1256 1.3066,0.254 2.5706,0.2908l0.7435 -0.4327 6.3702 -0.6474 3.7777 -0.7347 0 -1.016c0,-0.5853 -0.1767,-0.762 -0.762,-0.762l-0.508 0c-4.1558,0 -9.7769,1.1477 -13.97,1.27 -4.4808,0.1307 -10.0056,0.634 -14.1225,1.3715 -2.3097,0.4137 -4.7579,0.2342 -7.2165,0.4035 -1.6616,0.1144 -4.7672,0.7014 -6.8457,0.7743 -5.0194,0.1761 -9.5529,0.6467 -14.4892,1.0048 -4.0069,0.2906 -10.2693,1.277 -13.9619,1.2781 -3.0484,0.0009 -4.813,0.6177 -6.8563,0.7637 -2.6517,0.1894 -4.7548,0.2091 -7.2151,0.6589 -2.5844,0.4725 -4.6521,-0.0272 -6.6982,0.4118 -1.4112,0.3028 -5.2721,0.5797 -6.9206,0.7014 -1.851,0.1367 -13.5873,0.9615 -14.226,1.268z"/>
   <path id="_40036016" class="fil0" d="M116.784 11.7328l-0.2973 1.3092 0.8053 0.9768c0.7285,0.8381 2.0706,2.54 3.556,2.54l0.254 0c2.6466,0 6.2992,-3.6917 5.4956,-5.251 -0.2678,-0.5196 -8.4525,0.3947 -9.8136,0.425z"/>
   <path id="_40307256" class="fil1" d="M112.225 18.4234c0.0747,-0.4141 2.7713,-3.6426 2.7813,-3.6426 0.5826,0 2.1539,2.2993 2.3012,2.8974l-5.0825 0.7452zm15.4813 -1.3566l-1.27 0 0.1664 -0.8925 0.8496 -1.3935 0.762 0c0.1327,0.5697 0.254,0.584 0.254,1.27l0 0.254c0,0.5853 -0.1767,0.762 -0.762,0.762zm3.048 -2.032c-1.1715,0 -1.27,-1.5572 -1.3498,-2.7648l-0.4236 -1.5228 2.2814 -0.2844 1.016 0c-0.0753,0.9055 -0.9111,4.572 -1.524,4.572zm-114.046 -1.016c1.7442,0 4.3251,-0.225 4.826,1.016 0.6387,-0.3065 12.375,-1.1313 14.226,-1.268 1.6485,-0.1217 5.5094,-0.3986 6.9206,-0.7014 2.0461,-0.439 4.1138,0.0607 6.6982,-0.4118 2.4603,-0.4498 4.5634,-0.4695 7.2151,-0.6589 2.0433,-0.146 3.8079,-0.7628 6.8563,-0.7637 3.6926,-0.0011 9.955,-0.9875 13.9619,-1.2781 4.9363,-0.3581 9.4698,-0.8287 14.4892,-1.0048 2.0785,-0.0729 5.1841,-0.6599 6.8457,-0.7743 2.4586,-0.1693 4.9068,0.0102 7.2165,-0.4035 4.1169,-0.7375 9.6417,-1.2408 14.1225,-1.3715 4.1931,-0.1223 9.8142,-1.27 13.97,-1.27l0.508 0c0.5853,0 0.762,0.1767 0.762,0.762l0 1.016 -3.7777 0.7347 -6.3702 0.6474 -0.7435 0.4327c-1.264,-0.0368 -1.5507,-0.4164 -2.5706,-0.2908l-7.874 1.016 -1.0118 0.4858 1.8719 0.3679 -0.6061 0.6703c1.0437,-0.0869 0.5674,-0.254 1.524,-0.254 0.4371,0 0.8703,0.6134 1.016,1.016 1.3611,-0.0303 9.5458,-0.9446 9.8136,-0.425 0.8036,1.5593 -2.849,5.251 -5.4956,5.251l-0.254 0c-1.4854,0 -2.8275,-1.7019 -3.556,-2.54l-1.016 1.016c-0.3987,-1.4933 -2.0288,-1.1354 -1.4996,-3.3738l-1.5121 -0.4362 0 -0.762 -0.2903 0 -0.0127 1.2319 -0.4953 0.2921 1.524 0 0 0.762c0,1.3386 -3.5784,4.572 -5.334,4.572l-1.524 0c-1.3456,0 -3.6375,-2.0687 -4.318,-3.048l-1.27 1.524c0.2615,1.1226 1.0086,2.1797 2.286,2.286l0.0053 0.8906 -4.3233 0.1254 0.2418 0.8231 -1.5118 -0.3151 0 1.016 29.3499 -1.869 -1.4042 1.1784 -8.3877 0.9446 1.016 0.254 0 1.016 3.302 -0.254 0 3.81c0,0.686 -0.1213,0.7003 -0.254,1.27l-0.762 0c-0.5695,0 -0.5576,0.201 -1.0168,0.4827l-2.7932 0.2793 3.7626 0.0182 0.3014 0.7438c1.4692,-0.1223 2.794,-0.6901 2.794,-2.286l-0.0213 -1.2691 0.0213 -3.3029 0.762 0c1.89,0 3.1002,-0.1777 3.9179,-1.4161 1.5495,-2.347 1.7719,-1.5428 2.6968,-2.6372 1.8881,-2.2344 2.5293,-4.0325 2.5801,-8.0879l0.4572 -0.5588c1.3443,0 2.794,-0.3261 2.794,-1.524l0 -1.524c0,-1.2554 -1.0306,-2.286 -2.286,-2.286l-4.064 0 0 0.508 -1.27 0c-3.2395,0 -6.9863,1.036 -10.6653,1.0187 -4.0344,-0.0189 -7.7622,0.3868 -11.1984,0.7396 -7.0452,0.7234 -14.4221,1.7202 -21.8313,1.7907 -1.6077,0.0153 -9.0412,0.5479 -10.8136,0.8704 -3.4072,0.6199 -7.55,0.5484 -10.8137,1.1243 -0.7376,0.1302 -4.8263,0.2839 -5.5351,0.3069 -2.428,0.079 -2.6664,0.5146 -5.3436,0.4984 -3.6044,-0.0218 -7.1537,0.763 -10.667,0.763 -0.5695,0 -0.5576,0.201 -1.0169,0.4772l-5.1097 -0.006 -0.7342 0.5139 -19.3012 1.8089z"/>
   <path id="_39555408" class="fil0" d="M130.754 15.0348c0.6129,0 1.4487,-3.6665 1.524,-4.572l-1.016 0 -2.2814 0.2844 0.4236 1.5228c0.0798,1.2076 0.1783,2.7648 1.3498,2.7648z"/>
   <path id="_39556944" class="fil0" d="M88.8443 14.5268c0,2.2133 2.8674,3.81 5.334,3.81l2.032 0c2.0019,0 3.386,-3.0373 3.556,-5.08 -1.3415,0 -10.922,0.7618 -10.922,1.27z"/>
   <path id="_40214168" class="fil0" d="M127.706 17.0668c0.5853,0 0.762,-0.1767 0.762,-0.762l0 -0.254c0,-0.686 -0.1213,-0.7003 -0.254,-1.27l-0.762 0 -0.8496 1.3935 -0.1664 0.8925 1.27 0z"/>
   <path id="_40213328" class="fil0" d="M102.814 14.2728c0.6805,0.9793 2.9724,3.048 4.318,3.048l1.524 0c1.7556,0 5.334,-3.2334 5.334,-4.572l0 -0.762 -1.524 0 -7.366 1.016 -2.9078 0.0537 0.6218 1.2163z"/>
   <path id="_39556848" class="fil0" d="M60.6474 16.5207l0.0029 1.0541c0,1.836 3.8961,3.302 6.096,3.302l0.254 0c1.7942,0 5.3965,-3.0326 5.5925,-5.275l-11.9454 0.9189z"/>
   <path id="_40213216" class="fil0" d="M74.3569 15.4282c0.4723,1.3935 3.1368,3.9246 4.8354,3.9246l0.762 0c2.8503,0 6.35,-1.9061 6.35,-4.064l-0.0061 -0.8363 -11.9413 0.9757z"/>
   <path id="_40214736" class="fil0" d="M117.308 17.6782c-0.1473,-0.5981 -1.7186,-2.8974 -2.3012,-2.8974 -0.01,0 -2.7066,3.2285 -2.7813,3.6426l5.0825 -0.7452z"/>
   <path id="_41648872" class="fil0" d="M99.5123 19.0988l4.3233 -0.1254 -0.0053 -0.8906c-1.2774,-0.1063 -2.0245,-1.1634 -2.286,-2.286l-0.7517 0.0043 -1.2803 3.2977z"/>
   <path id="_39557040" class="fil0" d="M85.0343 20.3688l4.064 0c0.9711,0 0.0924,0.078 0.762,-0.254 -0.1681,-0.6297 -1.9664,-2.54 -2.286,-2.54 -0.3941,0 -2.4192,2.4602 -2.54,2.794z"/>
   <path id="_39556656" class="fil0" d="M33.9813 19.1116l0.6146 2.1463 1.1624 1.1429c1.5519,0 1.9404,0.508 3.302,0.508 1.9213,0 5.334,-1.4377 5.334,-3.556l-0.0065 -1.0955 -10.4065 0.8543z"/>
   <path id="_40212992" class="fil0" d="M21.0263 20.3688l1.524 3.048c1.7434,0 1.3551,0.508 2.54,0.508 1.5751,0 3.6661,-0.3524 4.5889,-0.9991 0.4901,-0.3434 2.4535,-3.0466 1.6857,-3.4728 -1.153,-0.6401 -8.9104,0.9159 -10.3386,0.9159z"/>
   <polygon id="_39557520" class="fil0" points="71.4363,21.2825 75.8998,21.264 76.0276,21.0005 73.5129,18.5221 "/>
   <path id="_39557136" class="fil0" d="M46.4263 18.3368c0,2.0286 3.4799,3.8396 5.7309,3.4649 1.4131,-0.2352 2.7426,-0.2328 3.7186,-0.8734 0.5812,-0.3816 1.9805,-2.0756 1.9805,-2.8455l0 -1.27c-1.4102,0 -11.43,0.6591 -11.43,1.524z"/>
   <path id="_39555216" class="fil0" d="M57.6023 22.9088c0.7945,-0.0661 0.9023,-0.254 1.778,-0.254l2.032 0c-0.0679,-0.8165 -1.8683,-2.794 -2.032,-2.794 -0.7234,0 -1.7555,2.0399 -1.778,3.048z"/>
   <path id="_40213608" class="fil0" d="M15.1876 20.6863l-0.7653 0.4445c-1.5021,0 -5.334,-0.3038 -5.334,1.016l0 0.254c0,1.4064 2.57,2.794 4.318,2.794l1.016 0c1.8118,0 4.9126,-2.8148 5.0848,-4.7352l-4.3195 0.2267z"/>
   <path id="_129803496" class="fil0" d="M44.3943 23.9248l2.286 0c0.7718,0 0.8624,-0.4406 1.016,-1.016 -1.4693,-0.1223 -1.2015,-1.016 -1.778,-1.016 -0.7678,0 -1.3654,1.3514 -1.524,2.032z"/>
   <path id="_40213664" class="fil0" d="M32.2023 23.9248l-1.2077 1.1001 0.1917 0.1699 2.794 0c0.4906,0 1.016,-0.4529 1.016,-0.762 0,-0.3463 -1.9431,-2.286 -2.032,-2.286 -0.9866,0 -0.762,0.8414 -0.762,1.778z"/>
   <path id="_40039448" class="fil0" d="M98.2423 20.6228l-44.1733 4.063 -0.0533 -0.2898 -0.7447 0.4015 -39.6352 3.6901 0.0245 0.2632c1.0326,1.4094 11.0479,-0.306 12.7169,-0.4911 4.7191,-0.5231 8.1302,-0.448 12.9393,-0.7767 8.1934,-0.5599 17.5388,-2.1615 26.1563,-2.2917 4.0592,-0.0613 8.5115,-1.086 12.9609,-1.2631 4.2284,-0.1682 8.979,-0.7058 13.2026,-1.0214 4.6626,-0.3484 8.467,-1.0393 12.9947,-1.1934 1.9017,-0.0647 3.6865,-0.3287 6.3113,-0.3286 3.149,0.0001 4.1462,-0.508 6.858,-0.508l8.3877 -0.9446 1.4042 -1.1784 -29.3499 1.869z"/>
   <path id="_40214792" class="fil0" d="M84.0183 26.9728l0 0.762c1.0349,-0.2763 1.5277,-2.794 0.254,-2.794l-2.032 0c0.4436,1.2254 1.778,0.8454 1.778,2.032z"/>
   <path id="_40214904" class="fil0" d="M18.6223 26.1214l3.42 0.0894c-0.0806,-0.9687 -1.091,-1.6685 -1.8869,-2.1145l-1.5331 2.0251z"/>
   <path id="_39558480" class="fil0" d="M69.2863 26.2108c0.0484,0.582 0.2346,1.524 0.762,1.524 0.3314,0 2.3473,-1.5149 2.54,-1.778l-2.032 0c-0.4002,0 -0.9625,0.1347 -1.27,0.254z"/>
   <path id="_40213440" class="fil0" d="M60.1423 27.2268c0.2329,0.8723 0.5024,1.185 1.524,1.27 0.4531,-1.697 0.8388,-0.1587 1.016,-1.778l-0.762 0c-0.9105,0 -0.8998,0.2977 -1.778,0.508z"/>
   <path id="_40214848" class="fil0" d="M118.816 22.1468l-1.524 0.254c-0.192,2.3074 -1.778,3.4391 -1.778,4.064l0 1.27 1.778 0 2.7932 -0.2793c0.4592,-0.2817 0.4473,-0.4827 1.0168,-0.4827l0.762 0c0.1327,-0.5697 0.254,-0.584 0.254,-1.27l0 -3.81 -3.302 0.254z"/>
   <path id="_40214224" class="fil0" d="M87.5743 27.7348c0.5853,0 0.762,-0.1767 0.762,-0.762l0 -1.524c0,-0.5853 -0.1767,-0.762 -0.762,-0.762l-1.27 0c0,0.9744 0.3816,3.048 1.27,3.048z"/>
   <path id="_39558288" class="fil0" d="M74.8457 26.5078c-0.4378,1.959 -1.8514,0.9764 -2.2546,2.5219l3.0452 -0.2789c0.0661,-0.7945 0.254,-0.9023 0.254,-1.778l0 -0.508c0,-1.0731 -0.9852,-0.762 -2.1008,-0.6583l1.0562 0.7013z"/>
   <path id="_40213496" class="fil0" d="M78.9383 28.2428l1.778 0c-0.1511,-0.566 -0.0593,-0.762 -0.762,-0.762l-0.254 0c-0.6005,0 -0.7458,0.1753 -0.762,0.762z"/>
   <path id="_40214112" class="fil0" d="M50.4976 28.0322c0.2291,0.842 0.227,0.8864 1.2627,0.9726 0.4568,-1.2618 0.3598,0.2363 0.7547,-1.3134l-2.0174 0.3408z"/>
   <path id="_39555984" class="fil0" d="M95.7062 23.9645l-0.0039 2.2463c0,3.9279 5.4656,3.4746 7.62,2.032 0,-1.4338 0.7277,-4.826 -0.508,-4.826l-0.5175 -0.0969 -6.5906 0.6446z"/>
   <path id="_39556464" class="fil0" d="M65.4763 29.5128c1.0067,0 2.286,-0.0516 2.286,-1.016 0,-0.4157 -0.1521,-0.762 -0.508,-0.762 -0.621,0 -1.6329,1.2347 -1.778,1.778z"/>
   <path id="_40214448" class="fil0" d="M42.1083 29.0048c0,0.273 0.7429,1.016 1.27,1.016l0.254 0c0.0105,0 2.0805,-1.1261 3.81,-1.27l0 -0.508c-1.0755,0 -5.334,-0.0602 -5.334,0.762z"/>
   <path id="_39556560" class="fil0" d="M56.5863 30.2748l1.524 0c0.4157,0 0.762,-0.1521 0.762,-0.508 0,-0.5271 -0.743,-1.27 -1.016,-1.27 -0.3482,0 -1.1624,1.3751 -1.27,1.778z"/>
   <path id="_39555504" class="fil0" d="M116.784 30.2748l2.54 2.032 0 -3.048 -1.778 0c-0.7231,0 -0.762,0.2942 -0.762,1.016z"/>
   <path id="_39555792" class="fil0" d="M23.3219 30.6105l-0.7988 -0.08 0.2812 5.5863c0.499,0.2641 0.749,0.508 1.524,0.508l3.048 0c1.7852,0 3.9825,-1.0431 5.08,-1.778 0,-1.1438 0.1011,-5.2118 -1.0293,-5.1928l-8.1051 0.9565z"/>
   <path id="_130000008" class="fil0" d="M98.7503 31.0368c-0.2045,0.1421 -0.6271,0.508 -0.762,0.508 -0.686,0 -0.7003,-0.1213 -1.2332,-0.2234l-0.5448 0.7314c0.2071,2.4889 0.7396,5.3532 1.1687,7.7213 0.4724,2.6075 0.4138,5.5378 0.6076,8.2824 0.3038,4.3023 1.2104,11.9071 0.4557,16.7083 -0.3929,2.5002 -0.5326,14.1542 0.0341,16.8379 0.7072,3.3498 1.7362,12.6801 5.0999,12.6801l1.778 0c0.9683,-3.6264 2.032,-5.7503 2.032,-10.668l0 -3.302c0,-2.6958 -1.5972,-10.5301 -2.3349,-11.9784l-1.4751 -8.0876c-0.8597,-1.2838 -1.4009,-9.1038 -1.7243,-11.2297 -0.6483,-4.2604 -0.3077,-7.8711 -0.3077,-12.1383l0 -0.508c0,-1.7225 -0.2329,-2.6983 -0.2499,-4.0681 -0.0305,-2.4474 -0.5501,-1.2659 -2.5441,-1.2659z"/>
   <g>
    <path id="_40348496" class="fil2" d="M114.752 41.7048l0.0564 2.2945 -0.2439 2.4375 2.4243 -1.1817 0.3032 -3.0423c0.151,-1.3006 -0.254,-1.896 -0.254,-3.302 -0.915,-1.3665 -2.3036,-4.0191 -4.318,-4.064 0,1.7639 2.032,5.2791 2.032,6.858z"/>
    <path id="_39936656" class="fil2" d="M109.418 44.2448l-0.2085 2.1561 1.4385 -0.6364 0.294 -3.2977 0 -0.762c0,-0.9763 -0.9837,-2.0418 -2.032,-2.286 0.0272,1.2188 0.698,3.7013 0.508,4.826z"/>
   </g>
   <path id="_39939056" class="fil1" d="M110.648 45.7645l-1.4385 0.6364 0.2085 -2.1561c0.19,-1.1247 -0.4808,-3.6072 -0.508,-4.826 1.0483,0.2442 2.032,1.3097 2.032,2.286l0 0.762 -0.294 3.2977zm1.564 1.5283l0.7837 -0.7754 -0.2757 -0.4946 -0.2841 -1.271 0.0301 -1.269c0,-1.8771 -1.4897,-5.588 -3.048,-5.588l-2.286 0c-0.1327,0.5697 -0.254,0.584 -0.254,1.27 0,0.5992 0.4983,1.1301 0.762,1.524 0,3.0755 0.6383,3.6757 -0.508,5.842l0.3151 1.5118c0.5086,0.1449 0.5229,0.2662 1.2089,0.2662 1.1913,0 2.496,-1.2771 3.556,-1.524l0 0.508z"/>
   <path id="_39165920" class="fil1" d="M40.8383 53.3888c0,0.7679 0.2989,0.7023 1.016,0.762 0.1631,-0.6811 0.254,-0.4788 0.254,-1.016 0,-0.226 -0.282,-0.508 -0.508,-0.508 -0.5853,0 -0.762,0.1767 -0.762,0.762z"/>
   <path id="_129803784" class="fil1" d="M38.0443 54.6588c0,0.4157 0.1521,0.762 0.508,0.762 0.5856,0 0.4955,-0.71 0.508,-1.27 -0.4927,0.041 -1.016,-0.012 -1.016,0.508z"/>
   <path id="_40116344" class="fil1" d="M45.9183 55.9288c0,0.5946 0.4214,1.016 1.016,1.016 0.5946,0 1.016,-0.4214 1.016,-1.016 0,-0.5853 -0.1767,-0.762 -0.762,-0.762l-0.508 0c-0.5853,0 -0.762,0.1767 -0.762,0.762z"/>
   <path id="_40034384" class="fil1" d="M39.8223 57.4528c0,0.226 0.282,0.508 0.508,0.508 0.7679,0 0.7023,-0.2989 0.762,-1.016 -0.56,0.0125 -1.27,-0.0776 -1.27,0.508z"/>
   <path id="_39554256" class="fil1" d="M43.1243 58.4688c0.5853,0 0.762,-0.1767 0.762,-0.762l0 -1.27c0,-0.7679 -0.2989,-0.7023 -1.016,-0.762 0,1.0143 -0.5994,2.794 0.254,2.794z"/>
   <path id="_40031536" class="fil1" d="M49.2203 58.9768l1.016 0c-0.0125,-0.56 0.0776,-1.27 -0.508,-1.27 -0.5725,0 -0.508,0.6993 -0.508,1.27z"/>
   <path id="_129941488" class="fil1" d="M55.0623 60.5008l1.778 0.254c-0.0205,-0.9217 -0.1114,-1.524 -1.016,-1.524 -0.8311,0 -0.762,0.4554 -0.762,1.27z"/>
   <path id="_39940304" class="fil1" d="M64.9683 60.7548c0.56,-0.0125 1.27,0.0776 1.27,-0.508 0,-0.5856 -0.71,-0.4955 -1.27,-0.508l0 1.016z"/>
   <polygon id="_40116960" class="fil1" points="75.1283,60.5008 76.3983,60.5008 76.3983,59.7388 75.1283,59.7388 "/>
   <path id="_39938576" class="fil0" d="M54.3003 63.2948c0.041,-0.4927 -0.012,-1.016 0.508,-1.016 0.4157,0 0.762,0.1521 0.762,0.508 0,0.5867 -0.711,0.4945 -1.27,0.508zm-5.08 -1.778c0.6811,-0.1631 0.4788,-0.254 1.016,-0.254 0.5853,0 0.762,0.1767 0.762,0.762l0 0.762 -1.778 0 0 -1.27zm11.176 0.254c0,-0.5856 0.71,-0.4955 1.27,-0.508 -0.041,0.4927 0.012,1.016 -0.508,1.016 -0.4157,0 -0.762,-0.1521 -0.762,-0.508zm-15.24 -0.254l-0.762 0 0 -1.27 0.762 0c0.4157,0 0.762,0.1521 0.762,0.508 0,0.5853 -0.1767,0.762 -0.762,0.762zm31.242 -1.016l-1.27 0 0 -0.762 1.27 0 0 0.762zm-11.43 -0.762c0.56,0.0125 1.27,-0.0776 1.27,0.508 0,0.5856 -0.71,0.4955 -1.27,0.508l0 -1.016zm-9.144 -0.508c0.9046,0 0.9955,0.6023 1.016,1.524l-1.778 -0.254c0,-0.8146 -0.0691,-1.27 0.762,-1.27zm-6.096 -1.524c0.5856,0 0.4955,0.71 0.508,1.27l-1.016 0c0,-0.5707 -0.0645,-1.27 0.508,-1.27zm-6.604 0.762c-0.8534,0 -0.254,-1.7797 -0.254,-2.794 0.7171,0.0597 1.016,-0.0059 1.016,0.762l0 1.27c0,0.5853 -0.1767,0.762 -0.762,0.762zm-2.794 -0.508c-0.226,0 -0.508,-0.282 -0.508,-0.508 0,-0.5856 0.71,-0.4955 1.27,-0.508 -0.0597,0.7171 0.0059,1.016 -0.762,1.016zm7.62 -2.032c0,0.5946 -0.4214,1.016 -1.016,1.016 -0.5946,0 -1.016,-0.4214 -1.016,-1.016 0,-0.5853 0.1767,-0.762 0.762,-0.762l0.508 0c0.5853,0 0.762,0.1767 0.762,0.762zm-9.398 -0.508c-0.3559,0 -0.508,-0.3463 -0.508,-0.762 0,-0.52 0.5233,-0.467 1.016,-0.508 -0.0125,0.56 0.0776,1.27 -0.508,1.27zm2.286 -2.032c0,-0.5853 0.1767,-0.762 0.762,-0.762 0.226,0 0.508,0.282 0.508,0.508 0,0.5372 -0.0909,0.3349 -0.254,1.016 -0.7171,-0.0597 -1.016,0.0059 -1.016,-0.762zm-4.5562 -1.7424l-0.0158 0.7264c0,2.1141 3.6338,7.0225 4.7965,8.4115 1.0289,1.229 2.6764,1.612 4.1749,2.4291 1.0694,0.583 4.5689,0.7948 4.9986,1.8594l1.27 0 0.0193 0.2909 13.2005 -0.8742 -0.0772 -0.4515 11.4655 -2.6157 4.0939 -1.4295 1.016 0c1.306,-0.8745 3.2522,-0.8944 3.556,-2.032 -2.3069,0 -3.6744,0.0747 -5.083,0.8739l-4.823 0.1421 -2.7965 0.0647 -9.6141 -0.2486 -1.8134 0.6919 -0.0122 -0.9549 -1.5118 -0.3151c-0.3208,0.1697 -0.8398,0.508 -1.27,0.508 -0.2702,0 -1.344,-1.0894 -2.5715,-1.4925 -0.3718,-0.1222 -3.2179,-1.0475 -3.2705,-1.0475l-0.254 0c-0.9943,0 -0.028,0.3835 -1.524,0.508l0.0363 -1.3621 -10.4503 -3.9719 0 1.016c-0.8748,0.2336 -0.6722,0.508 -1.016,0.508 -0.4173,0 -1.27,-0.3707 -1.27,-0.762 0,-0.5818 0.0861,-0.2953 0.2081,-1.1197l-1.4623 0.6473z"/>
   <path id="_39939632" class="fil1" d="M45.1563 61.5168c0.5853,0 0.762,-0.1767 0.762,-0.762 0,-0.3559 -0.3463,-0.508 -0.762,-0.508l-0.762 0 0 1.27 0.762 0z"/>
   <path id="_39940496" class="fil0" d="M118.562 57.7068l0 1.016c0,1.0092 0.4865,1.1111 0.5011,3.0549 0.0097,1.2917 0.2685,1.9331 0.2612,3.5488 -0.0125,2.7561 -0.0003,4.2667 0.0365,7.1429l-0.5069 0.7344 -0.2919 4.569 0 0.508c0,2.317 0.5533,6.9403 1.1086,8.7974 0.4594,1.5361 2.9756,5.4266 4.4794,5.4266l0.508 0c0.9631,0 1.016,-1.5437 1.016,-2.54 0.307,-0.4584 0.508,-0.4465 0.508,-1.016l-0.1167 -3.5387 -1.9153 -11.1933c0,-2.5763 -1.6886,-6.2733 -1.7797,-8.3803 -0.0888,-2.0581 -0.6786,-1.7558 -0.7507,-4.3293 -0.0377,-1.3476 -0.5176,-2.1956 -0.6428,-4.5172l-0.6368 -2.3312c-0.6158,0.1644 -1.778,2.2932 -1.778,3.048z"/>
   <path id="_40115720" class="fil1" d="M61.6663 61.2628c-0.56,0.0125 -1.27,-0.0776 -1.27,0.508 0,0.3559 0.3463,0.508 0.762,0.508 0.52,0 0.467,-0.5233 0.508,-1.016z"/>
   <path id="_40116056" class="fil1" d="M50.9983 62.0248c0,-0.5853 -0.1767,-0.762 -0.762,-0.762 -0.5372,0 -0.3349,0.0909 -1.016,0.254l0 1.27 1.778 0 0 -0.762z"/>
   <path id="_40116736" class="fil1" d="M54.3003 63.2948c0.559,-0.0135 1.27,0.0787 1.27,-0.508 0,-0.3559 -0.3463,-0.508 -0.762,-0.508 -0.52,0 -0.467,0.5233 -0.508,1.016z"/>
   <path id="_129607936" class="fil0" d="M26.3603 39.4188l0.1566 1.0071 0.5686 12.2315 0.5448 0.7314c0,2.5635 0.2095,9.4087 0.6191,11.8463 0.4311,2.5654 -0.6191,8.7466 -0.6191,11.7757l0 6.858c0,7.0125 0.8947,16.256 7.62,16.256 0.3576,-1.535 1.016,-2.3017 1.016,-4.318 0,-3.1469 -0.4117,-5.634 -0.5177,-8.3723 -0.0595,-1.5402 -0.2149,-2.8952 -0.2529,-4.0651 -0.0818,-2.5134 -0.4544,-2.1731 -0.7056,-3.8664 -0.475,-3.201 -0.989,-4.928 -1.3393,-7.5507 -0.2826,-2.1162 -1.2485,-5.3375 -1.2117,-7.6721l-0.5448 -0.7314 0 -1.27c-0.9088,-1.3571 -1.524,-5.4305 -1.524,-7.62l-0.0576 -13.7232 0.3116 -2.7868c-0.7057,0.0587 -4.064,0.4926 -4.064,1.27z"/>
   <path id="_40673216" class="fil0" d="M93.1623 70.9148l0 3.556 0.4776 -0.0046 0.2844 -2.2814 0 -2.032c-0.566,0.1511 -0.762,0.0593 -0.762,0.762z"/>
   <path id="_129758688" class="fil1" d="M61.1668 178.159l-0.9842 -0.1659 1.2895 -2.2363 1.9676 2.0614 -2.2729 0.3408zm9.8975 -3.1044c0.8176,0.068 1.524,0.4546 1.524,1.27 0,0.5853 -0.1767,0.762 -0.762,0.762l-0.762 0c-1.5425,0 -0.2038,-1.2689 0,-2.032zm9.398 -0.254c0.8052,0.0179 1.778,0.3676 1.778,1.016 0,0.226 -0.282,0.508 -0.508,0.508 -0.686,0 -0.7003,-0.1213 -1.27,-0.254l0 -1.27zm-13.716 2.794l-0.762 0c0.175,-0.4834 2.7842,-2.9098 3.302,-3.048 -0.0978,1.1758 -0.3265,0.6691 -0.8565,1.9375 -0.3298,0.7893 -0.6805,1.1105 -1.6835,1.1105zm22.86 -3.556c0.827,0.2208 1.0492,0.443 1.27,1.27 -1.1499,-0.1258 -0.8462,-0.4635 -1.27,-1.27zm-14.478 -0.254l3.048 -0.254c1.314,-0.1525 0.7516,3.048 -0.254,3.048l-0.762 0c0.0238,-1.0698 0.7485,-2.032 -0.508,-2.032l-1.524 0 0 -0.762zm22.098 -1.778l2.794 -0.254c0.5746,-0.0718 0.762,0.239 0.762,0.762l-0.0045 1.052 -2.7895 -0.29 -0.762 0 0 -1.27zm-10.414 3.81l-1.0175 -0.0006 0.7635 -2.2854 -2.032 0 0.004 -0.465 3.806 -0.297 1.016 0 0 0.508 -1.27 0c0,1.1431 -0.1835,2.54 -1.27,2.54zm5.842 -3.556l1.778 0c0.5695,0 0.5576,0.201 0.9549,0.5202l0.3151 1.5118c-0.5875,1.1103 0.1961,0.6294 -0.9849,0.767l0.2229 -1.783 -1.524 0c-0.7918,0 -0.6706,-0.3033 -0.762,-1.016zm33.528 -0.762l0.762 0 0 0.762 -0.762 0 0 -0.762zm-17.8397 -2.027l0.0597 -0.259c0,-0.887 3.0013,-2.54 4.064,-2.54l0.762 0c0.8592,0 1.415,0.9819 1.6981,1.5364l0.5879 4.3056 0 0.762 -1.27 0c-1.3868,0 -1.4072,0.508 -2.794,0.508l-2.7487 -0.0038 -0.359 -4.3092zm9.4577 1.773l0.254 1.778c-0.9856,-0.2632 -1.016,-1.2821 -1.016,-2.54 0.7945,-0.0661 0.9023,-0.254 1.778,-0.254l1.778 0 0 0.762 -1.524 0c-0.4002,0 -0.9625,0.1347 -1.27,0.254zm5.08 -0.762c0,-0.5853 0.1767,-0.762 0.762,-0.762l0.508 0c0.5853,0 0.762,0.1767 0.762,0.762 0,0.4157 -0.1521,0.762 -0.508,0.762 -0.5871,0 -1.524,-0.2839 -1.524,-0.762zm-20.32 -4.572c0.0826,-0.9929 -0.1537,-0.7715 0.762,-1.016 -0.1127,1.3547 0.1763,0.5908 -0.762,1.016zm-21.844 -4.318c0.2328,-0.9992 0.1177,-1.0301 1.016,-1.27 -0.0894,1.0742 -0.1356,1.0096 -1.016,1.27zm11.938 -1.778l0.762 0.762 -0.762 0 0 -0.762zm-3.048 1.27c0.0934,-1.1225 0.3124,-1.5223 1.27,-1.778 -0.3113,1.3364 0.0545,1.6678 -1.27,1.778zm-3.302 -5.08l0.762 0 0 0.762 -0.762 0 0 -0.762zm26.2541 -22.848c1.8677,1.1303 8.1189,9.2869 9.444,11.5339 1.1233,1.9047 2.4573,5.0114 3.2035,7.2105 0.5591,1.6479 1.2565,7.9646 -1.0543,7.8555l-3.2947 -0.0191 -6.6126 -0.9388c-0.5697,0.1327 -0.584,0.254 -1.27,0.254 -1.0735,0 -1.27,-4.1698 -1.27,-5.588l-0.0366 -2.7965 1.041 -15.4906 -0.1503 -2.0209zm-76.8001 -25.92l2.794 6.096 0 1.524c0,1.1375 0.7643,4.5788 1.3267,5.3293l0.9593 14.2287 -0.0587 5.8397 -0.7482 16.5368 1.3149 14.7075c-0.5697,0.1327 -0.584,0.254 -1.27,0.254l-0.508 0c-3.5667,0 -2.286,-1.0534 -2.286,-3.81l0.2151 -1.5527 -2.2471 -17.2433 -0.508 0c0,-1.9574 -2.2521,-9.7691 -2.9466,-11.5314 -0.9679,-2.4557 -1.8794,-9.4376 -1.8426,-12.8832l-0.6143 -0.7377 0.3235 -3.8037c0.1605,-1.7714 -0.3426,-1.7149 0.1491,-4.1689 0.2024,-1.0104 0.5794,-3.3373 0.8212,-4.0048 0.7184,-1.9843 2.7592,-4.5834 5.1257,-4.7803zm64.77 7.874l0 -4.318c0,-3.0003 1.6573,-9.144 4.826,-9.144l0.254 0c1.4341,0 2.286,3.5887 2.286,5.334 1.7934,2.6782 0.6441,8.045 2.032,10.668l-0.2997 0.0399 0.8077 5.5481 0.0963 7.6362 -0.6043 3.7938c-0.0061,0.0365 0.7355,2.6632 0.4066,4.4706 -0.2678,1.4715 -0.1396,3.372 -0.3526,4.7274 -0.38,2.4175 -0.308,7.417 -0.308,10.106l-0.0969 1.0255 0.6049 6.5945c0.307,0.4584 0.508,0.4465 0.508,1.016l0 2.286 -1.0245 -0.0564 -2.2775 0.3104c0,-5.0563 -0.303,-9.7553 -0.9621,-14.0239 -0.3602,-2.3332 -0.3104,-4.3394 -0.7135,-6.6525 -0.3566,-2.046 -0.8644,-4.7405 -0.8276,-6.7862l-0.4462 -0.7476 -0.6066 -4.3018c-1.1961,-1.7863 -3.302,-13.975 -3.302,-17.526zm20.32 -6.096l0.508 -0.762c0,-2.6626 1.4739,-8.636 3.302,-8.636l1.016 0c1.8682,0 3.734,8.886 4.0367,11.2033 0.2673,2.0472 0.5435,4.9176 0.5356,7.0844 -0.0113,3.1038 0.5077,4.8957 0.5077,7.3663l0.0945 1.5292 -0.8565 15.9968 0 7.112c0,2.1045 0.2724,3.5745 0.2629,5.3375 -0.0073,1.3444 -0.2758,1.4901 -0.2852,2.5395 -0.015,1.6596 0.7843,1.4339 0.7843,2.283l0 3.556 -1.27 0c-1.0986,0 -1.0237,0.508 -1.778,0.508 -0.3091,0 -0.762,-0.5254 -0.762,-1.016 0,-2.6405 1.3364,-5.5681 0.9984,-8.3637 -0.1227,-1.0143 -0.239,-3.1107 -0.5367,-4.036 -0.7523,-2.3377 -0.2077,-1.5055 -0.2077,-4.1103 0,-4.0944 -2.286,-7.971 -2.2492,-12.2226l-0.3684 -0.7737 -1.7004 -6.3077c0,-1.5007 -0.7203,-2.3878 -0.9894,-4.0906 -0.2036,-1.2882 -0.5211,-3.49 -0.538,-4.796 -0.0295,-2.2714 -0.9716,-2.5484 -0.6637,-4.2135 0.2888,-1.5618 0.1591,-3.4858 0.1591,-5.1879zm-30.988 43.434l-0.2674 -0.9943 -0.4946 -0.2757c-2.2008,1.4737 -0.6554,1.016 -3.556,1.016 -0.52,0 -0.8861,0.7835 -1.016,1.27 -3.6172,0 -1.1758,-0.6261 -2.54,1.524 -0.5161,0.8134 -0.2147,1.415 -1.524,1.524 -0.1536,-0.5754 -0.2442,-1.016 -1.016,-1.016 -0.7628,0 -1.2692,1.016 -2.032,1.016l-0.762 0c-0.5706,1.5762 -2.955,1.0733 -4.122,1.974 -0.967,0.7462 -2.6841,2.09 -4.26,2.09 -0.59,0.8811 -2.2131,2.2374 -3.1952,2.9008 -2.378,1.6066 -1.5204,0.947 -4.256,1.84 -1.5864,0.5179 -8.3212,2.6252 -9.8208,2.6252l-4.572 0c-0.7858,0 -1.524,-1.5844 -1.524,-2.032l-0.034 -6.3539 0.542 -4.8221c1.2271,-1.8325 1.9205,-5.1594 3.3474,-7.3206 1.4287,-2.1638 3.0504,-4.265 4.2237,-6.4443 0.6966,-1.2941 0.451,-0.172 1.1619,-1.3781 0.4183,-0.7099 0.5066,-1.1302 0.9661,-1.8279 0.7623,-1.1577 1.3551,-2.037 2.0321,-3.3019 1.2107,-2.2624 2.6384,-4.5264 4.0624,-6.6056 2.4578,-3.5888 5.8024,-9.9572 8.5362,-12.7998 1.6605,-1.7266 6.6436,-12.8998 8.4362,-12.8998 0.7117,0 1.4662,1.0584 1.778,1.524 -0.1779,0.3589 -0.254,0.4218 -0.254,1.016l0 0.762c0,0.5695 0.201,0.5576 0.508,1.016 -0.0661,0.7945 -0.254,0.9023 -0.254,1.778 0,0.7256 1.1911,2.54 2.032,2.54 0.3485,0 0.6066,-0.53 0.7783,-0.7745l-1.2863 -1.7655c0.2448,-0.3655 1.016,-1.3265 1.016,-1.778 0,-0.9343 -0.762,-0.5897 -0.762,-1.524l0 -0.508c0,-0.4492 0.8545,-2.794 1.778,-2.794l0.508 0c0.7362,0 5.4985,6.4003 6.5401,7.4299 0.9821,0.9708 6.6679,6.3958 6.6679,7.3021l0 0.254c0,0.5695 -0.201,0.5576 -0.5607,1.0321l0.8147 2.2699c0,2.7036 0.7112,5.651 0.7726,7.6094 0.1068,3.409 1.0054,5.0267 0.9686,7.4072l0.5448 0.7314c0,3.9452 1.3987,6.1601 1.7795,9.3965 0.1893,1.6081 1.0332,2.6168 1.0183,4.5697 -0.015,1.9712 0.7582,4.149 0.7582,5.0838l0 0.254c0,0.8757 -0.1879,0.9835 -0.254,1.778 -0.9013,-0.21 -1.777,-0.762 -2.54,-0.762l-0.508 0c-0.8757,0 -0.9835,0.1879 -1.6901,0.1991l-0.599 -0.9592 -0.0704 0.249 -3.4825 -1.2669 -2.286 0c-1.8931,-1.2677 -0.9619,0.4522 -2.032,-1.778zm-62.738 -49.276l1.524 0 1.0076 -0.066 6.6124 -0.696c0.3076,-0.039 0.4969,0.1331 1.016,0.254 -0.0424,1.9026 -3.0349,1.4426 -5.0893,1.5147 -2.3814,0.0835 -3.9238,1.176 -5.0707,-1.0067zm58.928 -2.794l-6.096 0.508 -4.064 0 -0.0067 -2.1065 10.1667 -0.9415c0.2641,0.499 0.508,0.749 0.508,1.524 0,0.8323 -0.4395,0.4816 -0.508,1.016zm16.764 -1.778l-3.8069 -0.2559 -0.5111 -1.0141c1.4386,-0.6903 7.6873,-1.2948 8.636,0 -0.3745,0.5112 -3.8527,1.3136 -4.318,1.27zm18.796 -1.778l-1.524 0c-0.9711,0 -0.0924,0.078 -0.8718,-0.3368l0.8675 -1.2618 7.8623 -0.4554 0.016 0.276c-0.0455,2.0415 -0.7979,1.0373 -2.741,1.323 -1.2059,0.1774 -2.0139,0.455 -3.609,0.455zm-24.638 -0.254l0 1.27c0,1.5684 1.778,2.3645 1.778,3.302l-0.0068 0.2529 -1.7712 11.4311c-1.1758,-0.0978 -9.906,-9.8443 -9.906,-11.176 0,-0.0088 1.27,-1.571 1.27,-2.794 0,-1.2001 -0.7796,-2.0617 -1.3966,-2.9021l7.2386 -8.7819 0.762 0c0,2.4014 3.1409,6.3462 3.556,8.128 -0.6652,0.3192 -1.524,0.292 -1.524,1.27zm-3.81 -25.654c0,-0.7027 0.196,-0.6109 0.762,-0.762l0 2.032 -0.2844 2.2814 -0.4776 0.0046 0 -3.556zm14.478 0l0 -0.762c0,-0.4171 3.3337,-3.7167 3.8731,-4.2549 0.7353,-0.7336 3.4342,-3.7833 4.2549,-3.8731l0.0838 4.5751 -0.5918 18.0309c-0.0639,1.7053 1.524,6.5027 1.524,7.112l0 0.762 0.508 0 0 1.524c0,0.8662 -1.27,1.5287 -1.27,2.286 0,1.9457 3.048,3.5503 3.048,4.318l0 0.508c0,0.2218 -0.8613,2.309 -0.9445,2.5448l-0.5795 9.3932c-0.1735,2.6101 0.2643,4.6582 0.2513,7.3687 -0.0124,2.589 0.9747,4.6721 1.018,6.856 0.0815,4.1041 2.6799,8.2676 3.0487,12.6993 -0.9752,-0.1067 -4.4917,-4.2196 -5.2686,-5.1454 -1.6469,-1.9623 -4.1294,-3.4688 -4.1294,-6.5386l0 -0.254 0.2644 -0.0218 -0.9995 -12.1515 0.2639 -0.0493 -0.5816 -0.7008 0.3282 -0.0807 -1.6333 -8.812 -1.9037 -4.3544 -0.3104 -2.2775c0.4362,-0.2308 1.778,-0.9962 1.778,-1.524 0,-1.5228 -0.7032,-2.7587 -2.286,-2.794 0,-3.2107 2.5095,-6.1814 2.296,-11.1853 -0.0752,-1.762 -0.3751,-4.5596 -0.518,-6.3407 -0.1553,-1.9364 -1.016,-4.3631 -1.016,-5.842 -0.307,-0.4584 -0.508,-0.4465 -0.508,-1.016zm18.034 19.05c0,0.9963 -0.0529,2.54 -1.016,2.54l-0.508 0c-1.5038,0 -4.02,-3.8905 -4.4794,-5.4266 -0.5553,-1.8571 -1.1086,-6.4804 -1.1086,-8.7974l0 -0.508 0.2919 -4.569 0.5069 -0.7344c-0.0368,-2.8762 -0.049,-4.3868 -0.0365,-7.1429 0.0073,-1.6157 -0.2515,-2.2571 -0.2612,-3.5488 -0.0146,-1.9438 -0.5011,-2.0457 -0.5011,-3.0549l0 -1.016c0,-0.7548 1.1622,-2.8836 1.778,-3.048l0.6368 2.3312c0.1252,2.3216 0.6051,3.1696 0.6428,4.5172 0.0721,2.5735 0.6619,2.2712 0.7507,4.3293 0.0911,2.107 1.7797,5.804 1.7797,8.3803l1.9153 11.1933 0.1167 3.5387c0,0.5695 -0.201,0.5576 -0.508,1.016zm-87.9299 -38.9657c-0.122,0.8244 -0.2081,0.5379 -0.2081,1.1197 0,0.3913 0.8527,0.762 1.27,0.762 0.3438,0 0.1412,-0.2744 1.016,-0.508l0 -1.016 10.4503 3.9719 -0.0363 1.3621c1.496,-0.1245 0.5297,-0.508 1.524,-0.508l0.254 0c0.0526,0 2.8987,0.9253 3.2705,1.0475 1.2275,0.4031 2.3013,1.4925 2.5715,1.4925 0.4302,0 0.9492,-0.3383 1.27,-0.508l1.5118 0.3151 0.0122 0.9549 1.8134 -0.6919 9.6141 0.2486 2.7965 -0.0647 4.823 -0.1421c1.4086,-0.7992 2.7761,-0.8739 5.083,-0.8739 -0.3038,1.1376 -2.25,1.1575 -3.556,2.032l-1.016 0 -4.0939 1.4295 -11.4655 2.6157 0.0772 0.4515 -13.2005 0.8742 -0.0193 -0.2909 -1.27 0c-0.4297,-1.0646 -3.9292,-1.2764 -4.9986,-1.8594 -1.4985,-0.8171 -3.146,-1.2001 -4.1749,-2.4291 -1.1627,-1.389 -4.7965,-6.2974 -4.7965,-8.4115l0.0158 -0.7264 1.4623 -0.6473zm53.1255 -20.0315c1.5195,2.3288 2.0384,10.2967 2.0384,14.2932l0.5448 0.7314 0.7547 8.918c-2.3585,0.5452 -4.3967,1.2706 -6.7328,1.9353 -0.961,0.2734 -6.8415,0.3533 -8.2827,0.3533l-5.334 0c-3.8881,0 -7.5768,-0.1216 -10.9185,-0.2574 -2.0358,-0.0828 -3.4414,-0.5254 -5.1104,-0.7317 -2.5596,-0.3163 -2.3966,-0.9062 -4.3927,-1.4493 -2.4932,-0.6783 -5.9711,-2.3728 -8.1931,-3.4909 -3.9272,-1.9763 -4.8647,-1.4354 -9.2313,-2.4527l0 -1.27c0,-0.9732 2.1188,-6.4124 2.6414,-7.2646 1.5869,-2.5882 1.9749,-3.5102 4.4706,-5.1814l0.0254 0.2777 24.5945 -2.2535c0.9898,0.1088 0.5418,-0.5243 2.2914,-0.5769 0.8995,-0.027 1.8988,0.0111 2.8094,0.0154 1.7708,0.0083 3.2282,-0.2567 5.3313,-0.2567l0.7314 -0.5448c0.6256,0.1754 0.781,0.2908 1.5546,0.2908l0.9958 -0.219 9.4118 -0.8662zm-64.5096 8.4512c0,-0.7774 3.3583,-1.2113 4.064,-1.27l-0.3116 2.7868 0.0576 13.7232c0,2.1895 0.6152,6.2629 1.524,7.62l0 1.27 0.5448 0.7314c-0.0368,2.3346 0.9291,5.5559 1.2117,7.6721 0.3503,2.6227 0.8643,4.3497 1.3393,7.5507 0.2512,1.6933 0.6238,1.353 0.7056,3.8664 0.038,1.1699 0.1934,2.5249 0.2529,4.0651 0.106,2.7383 0.5177,5.2254 0.5177,8.3723 0,2.0163 -0.6584,2.783 -1.016,4.318 -6.7253,0 -7.62,-9.2435 -7.62,-16.256l0 -6.858c0,-3.0291 1.0502,-9.2103 0.6191,-11.7757 -0.4096,-2.4376 -0.6191,-9.2828 -0.6191,-11.8463l-0.5448 -0.7314 -0.5686 -12.2315 -0.1566 -1.0071zm90.6288 5.8363l-2.4243 1.1817 0.2439 -2.4375 -0.0564 -2.2945c0,-1.5789 -2.032,-5.0941 -2.032,-6.858 2.0144,0.0449 3.403,2.6975 4.318,4.064 0,1.406 0.405,2.0014 0.254,3.302l-0.3032 3.0423zm-4.2688 0.7677l0.2757 0.4946 -0.7837 0.7754 0 0.508 1.016 0c-0.2832,1.0607 -3.2869,1.7544 -4.5607,1.7893 -3.001,0.0822 -2.8182,0.9541 -5.0913,1.0047l0 -2.286 -0.5602 -7.8711 0.0522 -1.0189 0.0891 -8.6359c-0.0864,-1.7017 4.3805,-1.2332 6.2706,-1.2604 2.8829,-0.0414 3.7215,-1.014 5.7712,1.0674 1.3427,1.3635 2.281,2.3318 3.197,4.169 0.5789,1.1611 1.7859,4.5523 2.1981,5.1679l0 1.27c0.307,0.4584 0.508,0.4465 0.508,1.016l0 2.794 -0.29 2.7895 -0.5228 0.4617 -5.0245 -0.2797 0.5401 -0.6549c2.1599,-0.0306 3.0112,-0.6095 3.0112,-2.8246l0 -0.762c0,-4.2309 -0.084,-4.5178 -1.5714,-7.3186 -0.5935,-1.1176 -0.6041,-1.8043 -1.8939,-2.4241 -0.2712,-0.1302 -3.1836,-0.9253 -3.3927,-0.9253l-0.762 0c-0.5946,0 -1.016,0.4214 -1.016,1.016 0,0.8237 3.048,5.8967 3.048,7.62l0 1.778c0,0.992 -0.1947,1.8872 -0.508,2.54zm-7.366 48.26l-1.778 0c-3.3637,0 -4.3927,-9.3303 -5.0999,-12.6801 -0.5667,-2.6837 -0.427,-14.3377 -0.0341,-16.8379 0.7547,-4.8012 -0.1519,-12.406 -0.4557,-16.7083 -0.1938,-2.7446 -0.1352,-5.6749 -0.6076,-8.2824 -0.4291,-2.3681 -0.9616,-5.2324 -1.1687,-7.7213l0.5448 -0.7314c0.5329,0.1021 0.5472,0.2234 1.2332,0.2234 0.1349,0 0.5575,-0.3659 0.762,-0.508 1.994,0 2.5136,-1.1815 2.5441,1.2659 0.017,1.3698 0.2499,2.3456 0.2499,4.0681l0 0.508c0,4.2672 -0.3406,7.8779 0.3077,12.1383 0.3234,2.1259 0.8646,9.9459 1.7243,11.2297l1.4751 8.0876c0.7377,1.4483 2.3349,9.2826 2.3349,11.9784l0 3.302c0,4.9177 -1.0637,7.0416 -2.032,10.668zm-73.9273 -64.6288c1.1304,-0.019 1.0293,4.049 1.0293,5.1928 -1.0975,0.7349 -3.2948,1.778 -5.08,1.778l-3.048 0c-0.775,0 -1.025,-0.2439 -1.524,-0.508l-0.2812 -5.5863 0.7988 0.08 8.1051 -0.9565zm2.2993 18.9088c0,6.8861 3.5391,11.7795 6.7961,15.5559 1.6731,1.94 3.6286,3.8292 5.4544,5.7216 1.884,1.9529 3.5719,3.7592 5.5968,5.5792 1.8311,1.6458 4.4245,3.5206 5.7739,5.4021 0.8727,1.2168 4.5203,4.0574 5.8567,5.3193 1.2431,1.174 11.6701,10.3 11.6701,10.9359 0,0.7543 -0.508,0.6794 -0.508,1.778l0 2.286c0,0.7718 0.4406,0.8624 1.016,1.016 -0.1932,2.3217 -3.1372,4.8966 -4.0966,6.8254 -1.3033,2.62 -2.7546,4.4736 -4.3345,6.8415 -0.7649,1.1464 -1.3043,2.08 -2.0824,3.2516 -0.3538,0.5328 -0.8341,1.0728 -1.2389,1.5551 -0.7108,0.8472 -0.4014,1.1449 -0.8965,1.8975 -0.6316,0.9601 -1.7908,2.0462 -2.3301,3.2579 -0.4183,0.9396 -1.4803,2.4556 -2.1402,3.4478 -1.6081,2.4179 -2.6525,4.2102 -4.1334,6.7886 -1.2969,2.2579 -3.055,4.2709 -4.5025,6.6735 -0.8193,1.3598 -1.5705,1.7289 -2.3575,3.2305 -0.382,0.7288 -1.7913,3.2282 -1.9156,3.6724 -0.9372,3.3499 -2.0756,3.7865 -2.4838,8.6922l-0.551 -0.004 0.297 -3.806 0 -1.016c0,-3.2412 0.2612,-7.8485 0.2541,-11.4299 -0.006,-2.9966 -0.1834,-9.5508 0.1612,-11.5402 0.4114,-2.3751 -1.3596,-8.0064 -1.4399,-10.5493 -0.1238,-3.9176 -2.0234,-7.7931 -2.0234,-10.1686 -0.5636,-0.3774 -1.778,-2.8638 -1.778,-3.302l0 -0.254c0,-1.1287 1.778,-0.8916 1.778,-3.048l0 -0.254c0,-1.2542 -0.8867,-1.9367 -2.032,-2.032 0.0425,-1.9086 1.016,-2.2261 1.016,-4.064l0 -5.08c0,-3.571 -0.5514,-7.5083 -1.1147,-10.8233 -0.5375,-3.1635 -1.0496,-7.4976 -1.979,-10.213 -0.4906,-1.4332 -0.0394,-3.3734 -0.7668,-5.3292 -0.5904,-1.5877 -0.9141,-2.808 -1.2419,-4.8541 -0.5137,-3.2062 -0.9936,-7.6024 -0.9936,-11.1984l0.2185 -12.1929 1.6524 -1.694 0.1611 -2.1151 -0.29 -2.7895c0.9315,0.0935 2.2448,1.862 2.322,2.7895 1.1053,0.2575 2.54,2.3628 2.54,3.048 0,0.0028 -1.8448,2.19 -2.076,2.496 -0.675,0.8937 -1.0642,1.7311 -1.4842,2.8338 -0.7758,2.0368 -1.7136,4.1603 -1.7738,6.8622zm83.82 -19.304l1.778 0 0 3.048 -2.54 -2.032c0,-0.7218 0.0389,-1.016 0.762,-1.016zm-60.96 1.016c0.1076,-0.4029 0.9218,-1.778 1.27,-1.778 0.273,0 1.016,0.7429 1.016,1.27 0,0.3559 -0.3463,0.508 -0.762,0.508l-1.524 0zm8.89 -0.762c0.1451,-0.5433 1.157,-1.778 1.778,-1.778 0.3559,0 0.508,0.3463 0.508,0.762 0,0.9644 -1.2793,1.016 -2.286,1.016zm-23.368 -0.508c0,-0.8222 4.2585,-0.762 5.334,-0.762l0 0.508c-1.7295,0.1439 -3.7995,1.27 -3.81,1.27l-0.254 0c-0.5271,0 -1.27,-0.743 -1.27,-1.016zm37.846 -1.524c0.7027,0 0.6109,0.196 0.762,0.762l-1.778 0c0.0162,-0.5867 0.1615,-0.762 0.762,-0.762l0.254 0zm-27.4393 0.2106c-0.3949,1.5497 -0.2979,0.0516 -0.7547,1.3134 -1.0357,-0.0862 -1.0336,-0.1306 -1.2627,-0.9726l2.0174 -0.3408zm7.6273 -0.4646c0.8782,-0.2103 0.8675,-0.508 1.778,-0.508l0.762 0c-0.1772,1.6193 -0.5629,0.081 -1.016,1.778 -1.0216,-0.085 -1.2911,-0.3977 -1.524,-1.27zm9.144 -1.016c0.3075,-0.1193 0.8698,-0.254 1.27,-0.254l2.032 0c-0.1927,0.2631 -2.2086,1.778 -2.54,1.778 -0.5274,0 -0.7136,-0.942 -0.762,-1.524zm-49.1309 -2.1145c0.7959,0.446 1.8063,1.1458 1.8869,2.1145l-3.42 -0.0894 1.5331 -2.0251zm68.1809 2.8765c0,0.5853 -0.1767,0.762 -0.762,0.762 -0.8884,0 -1.27,-2.0736 -1.27,-3.048l1.27 0c0.5853,0 0.762,0.1767 0.762,0.762l0 1.524zm-14.5468 -1.1663c1.1156,-0.1037 2.1008,-0.4148 2.1008,0.6583l0 0.508c0,0.8757 -0.1879,0.9835 -0.254,1.778l-3.0452 0.2789c0.4032,-1.5455 1.8168,-0.5629 2.2546,-2.5219l-1.0562 -0.7013zm10.2288 1.1663c0,-1.1866 -1.3344,-0.8066 -1.778,-2.032l2.032 0c1.2737,0 0.7809,2.5177 -0.254,2.794l0 -0.762zm18.2785 -3.6529l0.5175 0.0969c1.2357,0 0.508,3.3922 0.508,4.826 -2.1544,1.4426 -7.62,1.8959 -7.62,-2.032l0.0039 -2.2463 6.5906 -0.6446zm-70.0945 0.6049c0,-0.9366 -0.2246,-1.778 0.762,-1.778 0.0889,0 2.032,1.9397 2.032,2.286 0,0.3091 -0.5254,0.762 -1.016,0.762l-2.794 0 -0.1917 -0.1699 1.2077 -1.1001zm12.192 0c0.1586,-0.6806 0.7562,-2.032 1.524,-2.032 0.5765,0 0.3087,0.8937 1.778,1.016 -0.1536,0.5754 -0.2442,1.016 -1.016,1.016l-2.286 0zm13.208 -1.016c0.0225,-1.0081 1.0546,-3.048 1.778,-3.048 0.1637,0 1.9641,1.9775 2.032,2.794l-2.032 0c-0.8757,0 -0.9835,0.1879 -1.778,0.254zm15.9106 -4.3867l2.5147 2.4784 -0.1278 0.2635 -4.4635 0.0185 2.0766 -2.7604zm-54.0058 1.9375c-0.1722,1.9204 -3.273,4.7352 -5.0848,4.7352l-1.016 0c-1.748,0 -4.318,-1.3876 -4.318,-2.794l0 -0.254c0,-1.3198 3.8319,-1.016 5.334,-1.016l0.7653 -0.4445 4.3195 -0.2267zm65.5272 -0.0908c0.1208,-0.3338 2.1459,-2.794 2.54,-2.794 0.3196,0 2.1179,1.9103 2.286,2.54 -0.6696,0.332 0.2091,0.254 -0.762,0.254l-4.064 0zm-40.6465 -2.1115l0.0065 1.0955c0,2.1183 -3.4127,3.556 -5.334,3.556 -1.3616,0 -1.7501,-0.508 -3.302,-0.508l-1.1624 -1.1429 -0.6146 -2.1463 10.4065 -0.8543zm-23.3615 2.1115c1.4282,0 9.1856,-1.556 10.3386,-0.9159 0.7678,0.4262 -1.1956,3.1294 -1.6857,3.4728 -0.9228,0.6467 -3.0138,0.9991 -4.5889,0.9991 -1.1849,0 -0.7966,-0.508 -2.54,-0.508l-1.524 -3.048zm25.4 -2.032c0,-0.8649 10.0198,-1.524 11.43,-1.524l0 1.27c0,0.7699 -1.3993,2.4639 -1.9805,2.8455 -0.976,0.6406 -2.3055,0.6382 -3.7186,0.8734 -2.251,0.3747 -5.7309,-1.4363 -5.7309,-3.4649zm26.1665 -2.735c-0.196,2.2424 -3.7983,5.275 -5.5925,5.275l-0.254 0c-2.1999,0 -6.096,-1.466 -6.096,-3.302l-0.0029 -1.0541 11.9454 -0.9189zm13.7054 -1.1493l0.0061 0.8363c0,2.1579 -3.4997,4.064 -6.35,4.064l-0.762 0c-1.6986,0 -4.3631,-2.5311 -4.8354,-3.9246l11.9413 -0.9757zm2.5461 0.0743c0,-0.5082 9.5805,-1.27 10.922,-1.27 -0.17,2.0427 -1.5541,5.08 -3.556,5.08l-2.032 0c-2.4666,0 -5.334,-1.5967 -5.334,-3.81zm-67.31 0.508c-0.5009,-1.241 -3.0818,-1.016 -4.826,-1.016l-11.4317 0.7416c-0.9428,0.6528 -1.5223,1.2317 -1.5223,2.8144l0 1.016c0,1.2986 1.6743,1.6166 2.54,2.032l0 2.54c0.7626,1.1389 1.3775,1.9135 2.1834,3.1506 0.7477,1.1476 1.6063,1.515 2.544,2.79 0.9278,1.2617 0.5051,2.6751 2.7302,2.3006 1.4718,-0.2478 3.4261,-0.5123 4.7344,-0.6212l0.7314 0.5448c0.0306,3.8978 -0.2848,5.3103 2.5706,6.8212 0,0.5477 0.7672,5.9281 0.9343,6.4317 0.5802,1.7495 0.8488,4.1096 0.8402,6.2718 -0.0099,2.479 0.7849,3.8254 0.7631,6.3489 -0.0183,2.126 0.3456,4.4094 0.2564,6.3476l-0.3947 9.4032c-0.1753,1.3419 0.3487,1.6869 0.0939,3.248 -0.1941,1.19 -0.4726,1.3492 -0.4639,3.0941 0.0083,1.6667 -0.2697,5.575 -0.15,6.5053 0.125,0.971 0.0873,4.8471 0.1434,6.4607 0.078,2.2453 0.7713,3.4497 0.7713,6.0867 0.4207,0.6282 1.524,2.1513 1.524,3.048 0,0.7164 -1.524,0.4215 -1.524,2.54 0,2.5375 3.0561,2.2858 2.794,3.81l-1.3776 8.1095 0.1076 4.0825 0.0788 6.604c-0.0788,7.1641 3.0004,12.8625 4.0391,19.5041 0.9776,6.2507 2.9941,13.0548 2.9941,20.3739 0.307,0.4584 0.508,0.4465 0.508,1.016l0 3.048c0,2.0695 -2.0999,1.718 -3.0213,3.8367 -0.52,1.1959 -0.0267,4.4016 -0.0267,6.3233l0.254 1.016 2.032 0 1.524 -0.254 2.0696 -0.3612 -0.7996 -0.4008 0.508 0 0 -0.508c-2.193,0 -2.0685,0.2091 -2.0324,-2.0316 0.0257,-1.5899 -0.2536,-2.1165 -0.2847,-4.0051l6.6351 -0.8213 4.318 -0.254 0 0.508 0.4769 -0.0099 0.2851 -1.0061 -1.9797 -0.9216 -0.2882 0.1917 -0.7801 -6.8901c0.6952,0.5093 1.4364,3.6384 2.1801,4.9319 0.637,1.1079 2.5217,3.3997 3.6619,3.7041l0 1.016c0,1.0338 -0.4011,1.3663 -1.016,1.778l0.82 0.9595 -0.1663 0.3282 1.0498 0.3643 -1.1955 1.65 0.508 0 0 0.508 12.7 -0.762c0.2045,-0.1421 0.6271,-0.508 0.762,-0.508 4.184,0 8.3478,-0.2821 12.6821,-0.7799 3.7307,-0.4284 8.9963,-1.2521 12.9719,-1.2521 0.4584,0.307 0.4465,0.508 1.016,0.508l0.508 0c0.6793,0 0.7513,-0.3667 1.0187,-0.7345l9.1413 -0.7895 1.7881 -0.0633 2.0219 0.3173c1.324,-0.8866 22.9655,-2.54 26.416,-2.54l0.762 -0.254 -0.0127 -0.4699 -0.4884 -0.2562 0.7505 -0.2552 -1.0114 -0.2887c-0.7716,-0.5653 -1.3274,-1.8032 -2.2176,-2.6084 -0.7798,-0.7054 -3.1164,-1.4081 -3.1164,-1.9636 0,-0.9698 2.041,-1.354 2.8418,-1.4762 0.7379,-0.1127 3.7007,-0.5558 3.7622,-0.5558 0.9651,0 1.7192,0.3168 2.54,0.508l0.762 0 -0.0885 -0.6138 -1.1688 -0.8721 0.4953 -0.2921 -1.039 -1.5077c0.023,-3.5132 0.1816,-8.2383 -0.3421,-11.3546 -0.0538,-0.3203 0.263,-9.9669 0.4191,-10.9597 0.956,-6.0823 0.2537,-15.8906 -0.054,-21.898l-0.2333 -8.1291 -0.5655 -0.7303c0.0368,-4.7323 -3.2652,-9.2039 -3.2652,-10.1906 0,-0.9682 2.286,-1.6257 2.286,-3.048 0,-2.7651 -3.302,-3.2374 -3.302,-3.556 0,-0.6993 1.2817,-3.5436 1.016,-5.842l-1.1054 -10.6577 -0.7159 -0.9871c0.0433,-2.9558 -1.3176,-9.099 -2.0978,-11.6141 -0.5019,-1.618 -2.1769,-9.9042 -2.1769,-11.5391l0 -1.524c0,-2.2008 1.016,-3.2312 1.016,-6.096 0,-4.456 -3.7802,-11.8291 -1.778,-16.002l-0.3014 -0.7438 -3.7626 -0.0182 -1.778 0 0 -1.27c0,-0.6249 1.586,-1.7566 1.778,-4.064l1.524 -0.254 0 -1.016 -1.016 -0.254c-2.7118,0 -3.709,0.5081 -6.858,0.508 -2.6248,-0.0001 -4.4096,0.2639 -6.3113,0.3286 -4.5277,0.1541 -8.3321,0.845 -12.9947,1.1934 -4.2236,0.3156 -8.9742,0.8532 -13.2026,1.0214 -4.4494,0.1771 -8.9017,1.2018 -12.9609,1.2631 -8.6175,0.1302 -17.9629,1.7318 -26.1563,2.2917 -4.8091,0.3287 -8.2202,0.2536 -12.9393,0.7767 -1.669,0.1851 -11.6843,1.9005 -12.7169,0.4911l-0.0245 -0.2632 39.6352 -3.6901 0.7447 -0.4015 0.0533 0.2898 44.1733 -4.063 0 -1.016 1.5118 0.3151 -0.2418 -0.8231 1.2803 -3.2977 0.7517 -0.0043 1.27 -1.524 -0.6218 -1.2163 2.9078 -0.0537 7.366 -1.016 0.4953 -0.2921 0.0127 -1.2319 0.2903 0 0 0.762 1.5121 0.4362c-0.5292,2.2384 1.1009,1.8805 1.4996,3.3738l1.016 -1.016 -0.8053 -0.9768 0.2973 -1.3092c-0.1457,-0.4026 -0.5789,-1.016 -1.016,-1.016 -0.9566,0 -0.4803,0.1671 -1.524,0.254l0.6061 -0.6703 -1.8719 -0.3679 1.0118 -0.4858c-0.4448,-0.2822 -23.588,1.6835 -26.0606,2.1334 -2.4725,0.4499 -10.7769,0.9208 -13.3146,0.9094 -1.7887,-0.008 -4.8213,0.4695 -6.3987,0.7133 -0.954,0.1474 -2.4889,0.0489 -3.5084,0.0476 -1.7777,-0.0022 -1.742,0.4292 -3.037,0.519 -4.5826,0.3176 -9.2013,0.964 -13.4754,1.0026 -4.3113,0.039 -8.7846,0.9736 -12.9433,1.2807 -4.2799,0.316 -9.0269,0.6099 -13.0127,1.2113 -1.8792,0.2836 -4.6287,0.5681 -6.5525,0.5595 -2.0249,-0.0091 -4.9765,0.7672 -6.3448,0.7672l-2.032 0c-0.7799,0 -1.524,-0.2352 -1.524,-1.016 0,-0.686 0.1213,-0.7003 0.254,-1.27l15.494 -1.27z"/>
   <path id="_40585320" class="fil0" d="M121.61 96.8228c1.5951,0 2.4031,-0.2776 3.609,-0.455 1.9431,-0.2857 2.6955,0.7185 2.741,-1.323l-0.016 -0.276 -7.8623 0.4554 -0.8675 1.2618c0.7794,0.4148 -0.0993,0.3368 0.8718,0.3368l1.524 0z"/>
   <path id="_40380200" class="fil0" d="M102.814 98.6008c0.4653,0.0436 3.9435,-0.7588 4.318,-1.27 -0.9487,-1.2948 -7.1974,-0.6903 -8.636,0l0.5111 1.0141 3.8069 0.2559z"/>
   <path id="_39325440" class="fil0" d="M86.0503 100.379c0.0685,-0.5344 0.508,-0.1837 0.508,-1.016 0,-0.775 -0.2439,-1.025 -0.508,-1.524l-10.1667 0.9415 0.0067 2.1065 4.064 0 6.096 -0.508z"/>
   <path id="_39334816" class="fil0" d="M27.1223 103.173c1.1469,2.1827 2.6893,1.0902 5.0707,1.0067 2.0544,-0.0721 5.0469,0.3879 5.0893,-1.5147 -0.5191,-0.1209 -0.7084,-0.293 -1.016,-0.254l-6.6124 0.696 -1.0076 0.066 -1.524 0z"/>
   <path id="_40038320" class="fil1" d="M80.4623 115.619l1.016 0c-0.041,-0.4927 0.012,-1.016 -0.508,-1.016 -0.4796,0 -0.508,0.5025 -0.508,1.016z"/>
   <path id="_39322136" class="fil1" d="M80.2083 119.175c0,0.5946 0.4214,1.016 1.016,1.016 0.4912,0 1.524,-1.0328 1.524,-1.524l0 -0.254c0,-0.686 -0.1213,-0.7003 -0.254,-1.27 -1.3126,0.0292 -2.286,1.5865 -2.286,2.032z"/>
   <path id="_130503336" class="fil1" d="M81.7323 121.207c1.1265,-0.0251 1.1787,0.0809 1.27,-1.016 -1,0.0223 -1.27,-0.0197 -1.27,1.016z"/>
   <path id="_40210696" class="fil1" d="M81.4827 124.508c-0.194,0.2836 -0.7664,0.8549 -0.7664,1.0165 0,0.4157 0.1521,0.762 0.508,0.762 0.523,0 1.778,-2.4172 1.778,-2.54l0 -1.27c0,-0.5853 -0.1767,-0.762 -0.762,-0.762l-1.085 0.0081 0.3274 2.7854z"/>
   <path id="_39554640" class="fil1" d="M82.2403 126.795l0 0.508c0,0.4157 0.1521,0.762 0.508,0.762 0.6066,0 1.524,-1.743 1.524,-2.032l0 -0.762c-1.1312,0.0252 -2.032,0.5332 -2.032,1.524z"/>
   <path id="_39562512" class="fil1" d="M81.2243 130.097c0.56,-0.0125 1.27,0.0776 1.27,-0.508 0,-0.226 -0.282,-0.508 -0.508,-0.508 -0.7231,0 -0.762,0.2942 -0.762,1.016z"/>
   <path id="_40210472" class="fil1" d="M83.0023 129.081c0.1631,0.6811 0.254,0.4788 0.254,1.016 0,0.4657 -0.508,0.2963 -0.508,0.762 0,0.4157 0.1521,0.762 0.508,0.762 0.7173,0 0.9799,-0.5828 1.27,-1.016 -0.1217,-0.5222 -0.2285,-1.778 -0.762,-1.778 -0.2965,0 -0.702,0.1807 -0.762,0.254z"/>
   <path id="_40210920" class="fil1" d="M80.7163 133.399l0 0.254c0,0.5853 0.1767,0.762 0.762,0.762l0.762 0c1.0221,0 1.9427,-2.286 0.508,-2.286 -0.7754,0 -2.032,0.4786 -2.032,1.27z"/>
   <path id="_40211032" class="fil1" d="M84.7803 135.177l0 -1.016 -1.016 0c0.0778,0.9345 0.0815,0.9382 1.016,1.016z"/>
   <path id="_39485960" class="fil1" d="M82.4943 135.685l1.016 0c-0.2445,-0.9157 -0.0231,-0.6794 -1.016,-0.762l0 0.762z"/>
   <path id="_39561360" class="fil1" d="M81.7273 136.67l0.005 1.0471c1.2087,-0.0269 1.6797,-0.0888 1.7675,-1.3348l-1.7725 0.2877z"/>
   <path id="_40211368" class="fil1" d="M84.2723 137.209c0,0.8447 0.456,0.7439 1.2822,0.7644l0.2418 -1.5264 -0.762 0c-0.5853,0 -0.762,0.1767 -0.762,0.762z"/>
   <path id="_39560880" class="fil1" d="M81.2243 139.495c1.1119,0.5335 1.8796,0.2545 1.27,-1.016 -1.1265,0.0251 -1.1787,-0.0809 -1.27,1.016z"/>
   <path id="_40211648" class="fil1" d="M85.0343 141.273c0.814,-0.0181 1.27,0.0827 1.27,-0.762 0,-0.9174 -0.6409,-0.762 -1.524,-0.762l-0.2413 1.2319 0.4953 0.2921z"/>
   <polygon id="_40211928" class="fil1" points="82.2403,142.543 83.2563,142.543 83.2563,141.527 82.2403,141.527 "/>
   <path id="_39559920" class="fil1" d="M83.7643 143.051l0.9779 0.2413 0.3138 -0.5087 -0.2757 -0.4946c-0.9929,0.0826 -0.7715,-0.1537 -1.016,0.762z"/>
   <path id="_40212208" class="fil1" d="M81.7323 144.321c0.4157,0 0.762,-0.1521 0.762,-0.508 0,-0.5853 -0.1767,-0.762 -0.762,-0.762l-0.762 0c0.0181,0.814 -0.0827,1.27 0.762,1.27z"/>
   <path id="_39559440" class="fil0" d="M100.528 115.111c0,3.551 2.1059,15.7397 3.302,17.526l0.6066 4.3018 0.4462 0.7476c-0.0368,2.0457 0.471,4.7402 0.8276,6.7862 0.4031,2.3131 0.3533,4.3193 0.7135,6.6525 0.6591,4.2686 0.9621,8.9676 0.9621,14.0239l2.2775 -0.3104 1.0245 0.0564 0 -2.286c0,-0.5695 -0.201,-0.5576 -0.508,-1.016l-0.6049 -6.5945 0.0969 -1.0255c0,-2.689 -0.072,-7.6885 0.308,-10.106 0.213,-1.3554 0.0848,-3.2559 0.3526,-4.7274 0.3289,-1.8074 -0.4127,-4.4341 -0.4066,-4.4706l0.6043 -3.7938 -0.0963 -7.6362 -0.8077 -5.5481 0.2997 -0.0399c-1.3879,-2.623 -0.2386,-7.9898 -2.032,-10.668 0,-1.7453 -0.8519,-5.334 -2.286,-5.334l-0.254 0c-3.1687,0 -4.826,6.1437 -4.826,9.144l0 4.318z"/>
   <polygon id="_40212600" class="fil1" points="86.8123,148.131 86.8123,147.115 86.3043,147.115 85.7963,147.115 85.7963,148.131 "/>
   <path id="_39558768" class="fil1" d="M82.2403 149.401l1.084 0.267 0.1568 -1.2032 1.5532 0.4282 0.0099 -2.0009 1.0061 -0.2851 0.3695 -0.6383 -1.2156 -1.0774 -0.013 0.3716 -1.6809 1.3441 0 1.27c-0.5095,-0.2445 -3.048,-0.6303 -3.048,0.254 0,0.9406 1.0481,0.9198 1.778,1.27z"/>
   <path id="_39558576" class="fil1" d="M88.5903 149.909l-0.2117 -0.2963 -0.2963 -0.2117 -0.508 0c0.0251,1.1265 -0.0809,1.1787 1.016,1.27l0 -0.762z"/>
   <path id="_40116288" class="fil1" d="M85.7963 150.671c-0.4157,0 -0.762,0.1521 -0.762,0.508 0,0.3559 0.3463,0.508 0.762,0.508l0.762 0c-0.0597,-0.7171 0.0059,-1.016 -0.762,-1.016z"/>
   <path id="_40034480" class="fil1" d="M89.0983 150.417l0 0.762 0.4946 0.2757 0.2674 0.9943 0 -0.762c0.6811,0.1631 0.4788,0.254 1.016,0.254 0.226,0 0.508,-0.282 0.508,-0.508 0,-0.6816 -1.3563,-1.524 -1.524,-1.524 -0.7153,0 -0.4703,0.1099 -0.762,0.508z"/>
   <path id="_40906736" class="fil1" d="M82.4943 152.195c0.7121,0 1.4495,-0.6292 1.524,-1.524l-1.27 0c-0.8154,0 -1.202,0.7064 -1.27,1.524l1.016 0z"/>
   <polygon id="_129939800" class="fil1" points="92.9083,153.211 93.6703,153.211 93.6703,152.195 92.9083,152.195 "/>
   <path id="_129693360" class="fil1" d="M80.4623 154.227c0.2641,-0.499 0.508,-0.749 0.508,-1.524 0,-0.4857 -0.508,-0.1731 -0.508,-1.016 0,-0.1349 0.3659,-0.5575 0.508,-0.762l-0.254 -0.762 -0.762 0c-0.4219,0.63 -1.524,1.5692 -1.524,2.54 0,0.1773 1.0299,1.1654 1.27,1.524l0.762 0z"/>
   <path id="_40469080" class="fil1" d="M94.6863 153.973l1.27 0c-0.0913,-1.0969 -0.1435,-0.9909 -1.27,-1.016l0 1.016z"/>
   <path id="_40075984" class="fil0" d="M35.7583 107.237c-2.3665,0.1969 -4.4073,2.796 -5.1257,4.7803 -0.2418,0.6675 -0.6188,2.9944 -0.8212,4.0048 -0.4917,2.454 0.0114,2.3975 -0.1491,4.1689l-0.3235 3.8037 0.6143 0.7377c-0.0368,3.4456 0.8747,10.4275 1.8426,12.8832 0.6945,1.7623 2.9466,9.574 2.9466,11.5314l0.508 0 2.2471 17.2433 -0.2151 1.5527c0,2.7566 -1.2807,3.81 2.286,3.81l0.508 0c0.686,0 0.7003,-0.1213 1.27,-0.254l-1.3149 -14.7075 0.7482 -16.5368 0.0587 -5.8397 -0.9593 -14.2287c-0.5624,-0.7505 -1.3267,-4.1918 -1.3267,-5.3293l0 -1.524 -2.794 -6.096z"/>
   <path id="_40031248" class="fil1" d="M76.3983 154.989l1.27 0 0 -0.762c-0.8314,0.0185 -1.2467,-0.0813 -1.27,0.762z"/>
   <polygon id="_39938384" class="fil0" points="87.0663,156.005 86.3043,156.005 86.3043,156.767 87.0663,156.767 "/>
   <g>
    <path id="_39936464" class="fil3" d="M112.212 47.293l-0.0001 -0.5083c-1.06,0.247 -2.3645,1.524 -3.5559,1.5241 -0.686,0.0002 -0.7005,-0.1214 -1.2091,-0.2662l-0.315 -1.5117c1.1461,-2.1666 0.508,-2.7667 0.5081,-5.8418 -0.2638,-0.3942 -0.762,-0.9251 -0.7622,-1.5243 0,-0.6861 0.1215,-0.7004 0.2542,-1.2699l2.2861 0.0001c1.5582,-0.0003 3.0479,3.7107 3.0478,5.588l-0.0301 1.2686 0.2842 1.2713c0.3132,-0.6529 0.5083,-1.548 0.508,-2.5401l0 -1.7779c0.0001,-1.7235 -3.048,-6.7965 -3.048,-7.6202 0,-0.5945 0.4214,-1.0158 1.0159,-1.0157l0.7622 -0.0002c0.209,0.0001 3.1214,0.7952 3.3925,0.9253 1.2898,0.6198 1.3006,1.3067 1.894,2.4241 1.4874,2.8008 1.5714,3.0877 1.5715,7.3185l-0.0001 0.7621c0.0003,2.2152 -0.8514,2.794 -3.011,2.8246l-0.5404 0.6548 5.0245 0.2797 0.5229 -0.4616 0.29 -2.7895 0 -2.7941c0.0001,-0.5694 -0.2009,-0.5576 -0.508,-1.0158l0.0001 -1.2702c-0.4123,-0.6156 -1.6194,-4.0067 -2.1982,-5.1677 -0.9161,-1.8372 -1.8543,-2.8056 -3.197,-4.169 -2.05,-2.0815 -2.8884,-1.1088 -5.771,-1.0674 -1.8903,0.027 -6.3573,-0.4414 -6.2708,1.2601l-0.0894 8.636 -0.0519 1.0191 0.5602 7.871 0 2.286c2.2731,-0.0506 2.0902,-0.9225 5.0914,-1.0047 1.2737,-0.0347 4.2775,-0.7284 4.5606,-1.7893l-1.0159 -0.0001 -0.0001 -0.5077z"/>
    <path id="_39939824" class="fil3" d="M81.4579 31.8338l-0.9957 0.2188c-0.7737,0.0001 -0.929,-0.1152 -1.5545,-0.2907l-0.7313 0.5447c-2.1032,0.0002 -3.5606,0.2653 -5.3315,0.257 -0.9104,-0.0044 -1.9097,-0.0426 -2.8093,-0.0155 -1.7496,0.0526 -1.3016,0.6857 -2.2916,0.5769l-24.5944 2.2535 -0.0252 -0.2776c-2.4958,1.6714 -2.8838,2.5932 -4.4706,5.1815 -0.5228,0.8521 -2.6415,6.2912 -2.6415,7.2644l0 1.2702c4.3667,1.0172 5.3038,0.4763 9.2313,2.4526 2.2219,1.1181 5.6998,2.8123 8.1931,3.4908 1.9961,0.5432 1.8332,1.133 4.3928,1.4491 1.6691,0.2067 3.0744,0.6491 5.1103,0.732 3.3415,0.1357 7.0305,0.2573 10.9183,0.2574l5.3341 0c1.4413,-0.0002 7.3218,-0.0799 8.2826,-0.3533 2.3364,-0.665 4.3744,-1.3902 6.7329,-1.9356l-0.7546 -8.9178 -0.5448 -0.7314c0.0001,-3.9966 -0.5188,-11.9643 -2.0384,-14.2933l-9.412 0.8663z"/>
    <path id="_39560400" class="fil3" d="M82.4945 138.479c0.6096,1.2701 -0.1583,1.5493 -1.2702,1.0157l-0.508 0.2541 0.123 0.4091 0.8539 0.8424 -0.4543 1.2331 1.0015 0.3094 -0.0002 -1.0162 1.016 0.0001 0 1.0161 0.5079 0.5078c0.2446,-0.9156 0.0232,-0.6791 1.0162,-0.7617l0.2539 -1.0162 -0.4949 -0.2919 0.241 -1.232 -1.5186 -1.5102 -0.7672 0.2404z"/>
    <path id="_40216864" class="fil3" d="M85.0341 151.179c0.0002,-0.3561 0.3464,-0.508 0.7622,-0.508 0.7679,-0.0001 0.7023,0.2988 0.7619,1.0158l-0.7617 0.0002c-0.4158,-0.0002 -0.7622,-0.1524 -0.7624,-0.508zm-2.5398 1.0158l-1.0158 0.0001c0.0678,-0.8177 0.4545,-1.524 1.2697,-1.5238l1.2702 -0.0003c-0.0746,0.8948 -0.812,1.524 -1.5241,1.524zm-0.254 -2.7941l0.0001 0.7623 -0.5082 -0.0001 -0.0019 -0.511 -1.0139 0.5111 0.2541 0.7619c-0.1425,0.2041 -0.508,0.6269 -0.5083,0.762 0.0001,0.8428 0.5081,0.5304 0.5084,1.016 -0.0005,0.775 -0.2441,1.0249 -0.5083,1.524l1.524 0.762c1.3643,-2.15 -1.0773,-1.5237 2.5399,-1.524 0.13,-0.4866 0.496,-1.2701 1.0161,-1.27 2.9004,0 1.3551,0.4579 3.5561,-1.0161l-0.0002 -0.7619 -0.5078 -0.5081 -0.0001 0.7619c-1.0969,-0.0913 -0.9909,-0.1433 -1.016,-1.2698l0.508 0.0001 -1.2701 -1.2702 -1.0159 -0.0001 0.0001 -1.0158 0.5079 0.0001 -0.2541 -0.5081 -1.006 0.2851 -0.0099 2.0008 -1.5531 -0.4282 -0.1569 1.2035 -1.084 -0.2674z"/>
    <path id="_39405712" class="fil3" d="M77.6683 154.227l0 0.762 -1.2701 -0.0001c0.0232,-0.8433 0.4386,-0.7437 1.2701,-0.7619zm17.0181 -1.27c1.1263,0.0251 1.1785,-0.0809 1.2699,1.0159l-1.27 0 0.0001 -1.0159zm-1.0161 -0.7618l0.0001 1.0158 -0.7621 -0.0002 0 -1.0156 0.762 0zm-11.1761 -8.3824c0,0.3559 -0.3463,0.5081 -0.7618,0.5082 -0.845,0 -0.7441,-0.4561 -0.7621,-1.2701l0.7619 0c0.5856,0.0001 0.762,0.1769 0.762,0.7619zm-1.2699 -4.318c0.0909,-1.0967 0.1437,-0.9909 1.2702,-1.0157l0.7672 -0.2404 1.5186 1.5102c0.8828,0 1.5241,-0.1555 1.5239,0.762 0.0002,0.8445 -0.456,0.7439 -1.27,0.7619l-0.2539 1.0162 0.2757 0.4947 -0.314 0.5086 -0.9779 -0.2416 -0.5079 -0.5078 -1.0158 0 -1.0015 -0.3094 0.4543 -1.2331 -0.8539 -0.8424 -0.123 -0.4091 0.508 -0.2541zm3.048 -2.2859c0,-0.5854 0.1767,-0.7619 0.7619,-0.762l0.762 0.0002 -0.2416 1.5262c-0.8263,-0.0205 -1.2823,0.0803 -1.2823,-0.7644zm-0.7726 -0.8268c-0.0876,1.2459 -0.5587,1.3079 -1.7678,1.3346l-0.0046 -1.0469 1.7724 -0.2877zm0.0105 -0.6973l-1.016 0 0 -0.7621c0.9933,0.0828 0.7715,-0.1536 1.016,0.7621zm1.2702 -1.5239l-0.0002 1.0161c-0.9344,-0.0779 -0.9381,-0.0816 -1.0158,-1.0161l1.016 0zm-4.064 -0.7622c-0.0001,-0.7912 1.2566,-1.2699 2.0318,-1.2698 1.4347,0.0001 0.5142,2.2857 -0.508,2.286l-0.7619 -0.0001c-0.5853,0 -0.762,-0.1766 -0.762,-0.7619l0.0001 -0.2542zm0.508 -3.3016c-0.0002,-0.722 0.0389,-1.0161 0.7619,-1.0161 0.2259,0 0.5082,0.2817 0.5081,0.5079 0.0001,0.5856 -0.7102,0.4954 -1.27,0.5082zm2.0319 -0.0001c0.0001,-0.5373 -0.0909,-0.3351 -0.2541,-1.016 0.0601,-0.0734 0.4655,-0.254 0.762,-0.2542 0.5338,0.0002 0.6404,1.256 0.7622,1.7779 -0.2903,0.4334 -0.5529,1.016 -1.2702,1.0161 -0.3558,0 -0.508,-0.3462 -0.5079,-0.7619 0,-0.4658 0.508,-0.2964 0.508,-0.7619zm-1.0158 -3.302c-0.0004,-0.991 0.9006,-1.4989 2.0318,-1.5243l-0.0001 0.7621c0.0001,0.289 -0.9173,2.0322 -1.5238,2.032 -0.3558,0.0001 -0.5081,-0.3461 -0.5081,-0.762l0.0002 -0.5078zm-1.0164 -0.5081c-0.3558,0 -0.5078,-0.3464 -0.5079,-0.7618 0,-0.1618 0.5725,-0.7331 0.7666,-1.0167l-0.3276 -2.7854 1.0853 -0.0081c0.585,0.0001 0.7619,0.1766 0.7617,0.7619l-0.0001 1.2702c0.0001,0.1227 -1.2549,2.5399 -1.778,2.5399zm0.5083 -5.08c0.0001,-1.0357 0.2699,-0.9936 1.2699,-1.016 -0.0912,1.0968 -0.1435,0.9909 -1.2699,1.016zm-1.524 -2.0319c-0.0002,-0.4458 0.9733,-2.0031 2.2858,-2.0322 0.1327,0.5699 0.2542,0.584 0.2539,1.2702l0.0002 0.2539c0.0001,0.4912 -1.0329,1.524 -1.5239,1.5238 -0.5946,0.0002 -1.0161,-0.4212 -1.016,-1.0157zm0.7618 -4.5721c0.5201,-0.0001 0.4672,0.5233 0.5081,1.016l-1.016 -0.0001c-0.0001,-0.5136 0.0284,-1.0162 0.5079,-1.0159zm1.0161 40.386l-1.524 -0.762 -0.7621 0c-0.2399,-0.3586 -1.2699,-1.3466 -1.2699,-1.5239 -0.0002,-0.9709 1.1021,-1.9103 1.5238,-2.54l0.7623 0 1.0139 -0.5111 0.0019 0.511 0.5082 0.0001 -0.0001 -0.7623c-0.7297,-0.3503 -1.778,-0.3293 -1.7779,-1.2699 0.0002,-0.8843 2.5384,-0.4983 3.0478,-0.254l0.0002 -1.2698 1.6807 -1.3443 0.0132 -0.3712 1.2155 1.0772 -0.3696 0.6382 0.2541 0.5081 0.5081 0.0001 -0.0002 1.0157 1.2701 1.2702 0.2966 0.2117 0.2115 0.2961 0.5078 0.5081c0.2919,-0.3981 0.0469,-0.508 0.7621,-0.5079 0.1679,-0.0001 1.5239,0.8424 1.524,1.5239 0.0001,0.226 -0.282,0.5081 -0.5079,0.508 -0.5371,0.0001 -0.3349,-0.0908 -1.0162,-0.2541l0.0001 0.7622c1.0701,2.2302 0.1388,0.5101 2.0321,1.7779l2.2858 0 3.4825 1.2673 0.0705 -0.2493 0.599 0.9592c0.7067,-0.0113 0.8145,-0.1993 1.6901,-0.1994l0.5079 0.0006c0.763,-0.0004 1.6389,0.5515 2.5402,0.7617 0.066,-0.7945 0.2538,-0.9024 0.2537,-1.7781l0.0002 -0.254c0,-0.9348 -0.7733,-3.1128 -0.7582,-5.0839 0.015,-1.9527 -0.8289,-2.9617 -1.0181,-4.5696 -0.3809,-3.2363 -1.7798,-5.4515 -1.7798,-9.3965l-0.5446 -0.7315c0.0368,-2.3804 -0.8622,-3.9979 -0.9687,-7.4071 -0.0613,-1.9581 -0.7725,-4.9058 -0.7726,-7.6096l-0.8147 -2.2698c0.3597,-0.4744 0.5607,-0.4625 0.5607,-1.032l0 -0.2538c-0.0002,-0.9065 -5.6858,-6.3316 -6.6678,-7.3022 -1.0416,-1.0296 -5.804,-7.4299 -6.5401,-7.4299l-0.508 0c-0.9236,-0.0001 -1.7782,2.3447 -1.7781,2.7942l0 0.5077c-0.0001,0.9342 0.7621,0.5896 0.762,1.5239 0,0.4518 -0.7713,1.4126 -1.0161,1.7785l1.2864 1.7651c-0.172,0.2444 -0.4298,0.7744 -0.7782,0.7743 -0.8409,0.0003 -2.0321,-1.8143 -2.0322,-2.5397 -0.0001,-0.8756 0.188,-0.9835 0.2541,-1.7781 -0.3071,-0.4582 -0.508,-0.4464 -0.508,-1.0162l0.0002 -0.7618c-0.0002,-0.5943 0.0758,-0.6571 0.2538,-1.0159 -0.3118,-0.4657 -1.0665,-1.5241 -1.7782,-1.5242 -1.7926,0.0001 -6.7754,11.1733 -8.4361,12.8999 -2.7337,2.8426 -6.0782,9.2111 -8.5362,12.7997 -1.424,2.0795 -2.8517,4.3435 -4.0623,6.6056 -0.6769,1.2649 -1.2698,2.1443 -2.0322,3.3018 -0.4593,0.6981 -0.5476,1.118 -0.9659,1.8282 -0.711,1.206 -0.4655,0.084 -1.1619,1.3781 -1.1735,2.1794 -2.795,4.2803 -4.2238,6.4443 -1.427,2.1609 -2.1203,5.488 -3.3475,7.3205l-0.5418 4.8222 0.0337 6.3539c0.0002,0.4473 0.7385,2.0318 1.5242,2.0319l4.5721 0c1.4994,0.0001 8.2345,-2.1073 9.8209,-2.6253 2.7353,-0.8933 1.8778,-0.2334 4.2558,-1.8399 0.9819,-0.6634 2.6051,-2.0196 3.1952,-2.901 1.5757,0.0002 3.293,-1.3436 4.2599,-2.0898 1.1671,-0.9008 3.5514,-0.3977 4.1222,-1.974l0.7621 0c0.7624,0 1.269,-1.0161 2.0318,-1.0162 0.7717,0.0004 0.8626,0.4408 1.0159,1.0162 1.3092,-0.1089 1.0082,-0.7107 1.5241,-1.524z"/>
    <path id="_40348552" class="fil3" d="M122.002 144.691c-1.3251,-2.247 -7.5763,-10.4036 -9.444,-11.5339l0.1503 2.0209 -1.041 15.4906 0.0366 2.7965c0,1.4182 0.1965,5.588 1.27,5.588 0.686,0 0.7003,-0.1213 1.27,-0.254l6.6126 0.9388 3.2947 0.0191c2.3108,0.1091 1.6134,-6.2076 1.0543,-7.8555 -0.7462,-2.1991 -2.0802,-5.3058 -3.2035,-7.2105z"/>
   </g>
   <polygon id="_40035920" class="fil0" points="93.4163,160.577 92.6543,159.815 92.6543,160.577 "/>
   <path id="_40400120" class="fil0" d="M89.6063 161.085c1.3245,-0.1102 0.9587,-0.4416 1.27,-1.778 -0.9576,0.2557 -1.1766,0.6555 -1.27,1.778z"/>
   <path id="_129597232" class="fil0" d="M80.7163 161.593c0.8804,-0.2604 0.9266,-0.1958 1.016,-1.27 -0.8983,0.2399 -0.7832,0.2708 -1.016,1.27z"/>
   <path id="_40115832" class="fil0" d="M120.848 109.015c0,1.7021 0.1297,3.6261 -0.1591,5.1879 -0.3079,1.6651 0.6342,1.9421 0.6637,4.2135 0.0169,1.306 0.3344,3.5078 0.538,4.796 0.2691,1.7028 0.9894,2.5899 0.9894,4.0906l1.7004 6.3077 0.3684 0.7737c-0.0368,4.2516 2.2492,8.1282 2.2492,12.2226 0,2.6048 -0.5446,1.7726 0.2077,4.1103 0.2977,0.9253 0.414,3.0217 0.5367,4.036 0.338,2.7956 -0.9984,5.7232 -0.9984,8.3637 0,0.4906 0.4529,1.016 0.762,1.016 0.7543,0 0.6794,-0.508 1.778,-0.508l1.27 0 0 -3.556c0,-0.8491 -0.7993,-0.6234 -0.7843,-2.283 0.0094,-1.0494 0.2779,-1.1951 0.2852,-2.5395 0.0095,-1.763 -0.2629,-3.233 -0.2629,-5.3375l0 -7.112 0.8565 -15.9968 -0.0945 -1.5292c0,-2.4706 -0.519,-4.2625 -0.5077,-7.3663 0.0079,-2.1668 -0.2683,-5.0372 -0.5356,-7.0844 -0.3027,-2.3173 -2.1685,-11.2033 -4.0367,-11.2033l-1.016 0c-1.8281,0 -3.302,5.9734 -3.302,8.636l-0.508 0.762z"/>
   <path id="_40116792" class="fil0" d="M102.56 165.911c0.9383,-0.4252 0.6493,0.3387 0.762,-1.016 -0.9157,0.2445 -0.6794,0.0231 -0.762,1.016z"/>
   <path id="_40115888" class="fil0" d="M129.484 172.007l4.0696 -0.131 0.2391 -0.1424 -0.4987 -5.8226c-0.8208,-0.1912 -1.5749,-0.508 -2.54,-0.508 -0.0615,0 -3.0243,0.4431 -3.7622,0.5558 -0.8008,0.1222 -2.8418,0.5064 -2.8418,1.4762 0,0.5555 2.3366,1.2582 3.1164,1.9636 0.8902,0.8052 1.446,2.0431 2.2176,2.6084z"/>
   <path id="_40288776" class="fil0" d="M123.642 169.721c-0.5853,0 -0.762,0.1767 -0.762,0.762 0,0.4781 0.9369,0.762 1.524,0.762 0.3559,0 0.508,-0.3463 0.508,-0.762 0,-0.5853 -0.1767,-0.762 -0.762,-0.762l-0.508 0z"/>
   <g>
    <path id="_40341040" class="fil4" d="M32.4563 49.3248l0.508 -0.254 0.0872 -1.3338 0.6748 0.8258c0.0602,-2.7019 0.998,-4.8254 1.7738,-6.8622 0.42,-1.1027 0.8092,-1.9401 1.4842,-2.8338 0.2312,-0.306 2.076,-2.4932 2.076,-2.496 0,-0.6852 -1.4347,-2.7905 -2.54,-3.048 -0.0772,-0.9275 -1.3905,-2.696 -2.322,-2.7895l0.29 2.7895 -0.1611 2.1151 -1.6524 1.694 -0.2185 12.1929z"/>
    <path id="_39087104" class="fil4" d="M96.9723 96.5688c0,-0.978 0.8588,-0.9508 1.524,-1.27 -0.4151,-1.7818 -3.556,-5.7266 -3.556,-8.128l-0.762 0 -7.2386 8.7819c0.617,0.8404 1.3966,1.702 1.3966,2.9021 0,1.223 -1.27,2.7852 -1.27,2.794 0,1.3317 8.7302,11.0782 9.906,11.176l1.7712 -11.4311 0.0068 -0.2529c0,-0.9375 -1.778,-1.7336 -1.778,-3.302l0 -1.27z"/>
    <path id="_39562128" class="fil4" d="M108.148 71.9308c0,1.4789 0.8607,3.9056 1.016,5.842 0.1429,1.7811 0.4428,4.5787 0.518,6.3407 0.2135,5.0039 -2.296,7.9746 -2.296,11.1853 1.5828,0.0353 2.286,1.2712 2.286,2.794 0,0.5278 -1.3418,1.2932 -1.778,1.524l0.3104 2.2775 1.9037 4.3544 1.6333 8.812 -0.3282 0.0807 0.5816 0.7008 -0.2639 0.0493 0.9995 12.1515 -0.2644 0.0218 0 0.254c0,3.0698 2.4825,4.5763 4.1294,6.5386 0.7769,0.9258 4.2934,5.0387 5.2686,5.1454 -0.3688,-4.4317 -2.9672,-8.5952 -3.0487,-12.6993 -0.0433,-2.1839 -1.0304,-4.267 -1.018,-6.856 0.013,-2.7105 -0.4248,-4.7586 -0.2513,-7.3687l0.5795 -9.3932c0.0832,-0.2358 0.9445,-2.323 0.9445,-2.5448l0 -0.508c0,-0.7677 -3.048,-2.3723 -3.048,-4.318 0,-0.7573 1.27,-1.4198 1.27,-2.286l0 -1.524 -0.508 0 0 -0.762c0,-0.6093 -1.5879,-5.4067 -1.524,-7.112l0.5918 -18.0309 -0.0838 -4.5751c-0.8207,0.0898 -3.5196,3.1395 -4.2549,3.8731 -0.5394,0.5382 -3.8731,3.8378 -3.8731,4.2549l0 0.762c0,0.5695 0.201,0.5576 0.508,1.016z"/>
    <path id="_39559248" class="fil4" d="M32.4563 49.3248c0,3.596 0.4799,7.9922 0.9936,11.1984 0.3278,2.0461 0.6515,3.2664 1.2419,4.8541 0.7274,1.9558 0.2762,3.896 0.7668,5.3292 0.9294,2.7154 1.4415,7.0495 1.979,10.213 0.5633,3.315 1.1147,7.2523 1.1147,10.8233l0 5.08c0,1.8379 -0.9735,2.1554 -1.016,4.064 1.1453,0.0953 2.032,0.7778 2.032,2.032l0 0.254c0,2.1564 -1.778,1.9193 -1.778,3.048l0 0.254c0,0.4382 1.2144,2.9246 1.778,3.302 0,2.3755 1.8996,6.251 2.0234,10.1686 0.0803,2.5429 1.8513,8.1742 1.4399,10.5493 -0.3446,1.9894 -0.1672,8.5436 -0.1612,11.5402 0.0071,3.5814 -0.2541,8.1887 -0.2541,11.4299l0 1.016 -0.297 3.806 0.551 0.004c0.4082,-4.9057 1.5466,-5.3423 2.4838,-8.6922 0.1243,-0.4442 1.5336,-2.9436 1.9156,-3.6724 0.787,-1.5016 1.5382,-1.8707 2.3575,-3.2305 1.4475,-2.4026 3.2056,-4.4156 4.5025,-6.6735 1.4809,-2.5784 2.5253,-4.3707 4.1334,-6.7886 0.6599,-0.9922 1.7219,-2.5082 2.1402,-3.4478 0.5393,-1.2117 1.6985,-2.2978 2.3301,-3.2579 0.4951,-0.7526 0.1857,-1.0503 0.8965,-1.8975 0.4048,-0.4823 0.8851,-1.0223 1.2389,-1.5551 0.7781,-1.1716 1.3175,-2.1052 2.0824,-3.2516 1.5799,-2.3679 3.0312,-4.2215 4.3345,-6.8415 0.9594,-1.9288 3.9034,-4.5037 4.0966,-6.8254 -0.5754,-0.1536 -1.016,-0.2442 -1.016,-1.016l0 -2.286c0,-1.0986 0.508,-1.0237 0.508,-1.778 0,-0.6359 -10.427,-9.7619 -11.6701,-10.9359 -1.3364,-1.2619 -4.984,-4.1025 -5.8567,-5.3193 -1.3494,-1.8815 -3.9428,-3.7563 -5.7739,-5.4021 -2.0249,-1.82 -3.7128,-3.6263 -5.5968,-5.5792 -1.8258,-1.8924 -3.7813,-3.7816 -5.4544,-5.7216 -3.257,-3.7764 -6.7961,-8.6698 -6.7961,-15.5559l-0.6748 -0.8258 -0.0872 1.3338 -0.508 0.254z"/>
    <path id="_40306608" class="fil4" d="M45.6643 172.515l0.5908 4.6818 1.1872 -0.8718c0.6149,-0.4117 1.016,-0.7442 1.016,-1.778l0 -1.016c-1.1402,-0.3044 -3.0249,-2.5962 -3.6619,-3.7041 -0.7437,-1.2935 -1.4849,-4.4226 -2.1801,-4.9319l0.7801 6.8901 0.2882 -0.1917 1.9797 0.9216z"/>
   </g>
   <path id="_40643696" class="fil0" d="M108.702 173.781l2.7487 0.0038c1.3868,0 1.4072,-0.508 2.794,-0.508l1.27 0 0 -0.762 -0.5879 -4.3056c-0.2831,-0.5545 -0.8389,-1.5364 -1.6981,-1.5364l-0.762 0c-1.0627,0 -4.064,1.653 -4.064,2.54l-0.0597 0.259 0.359 4.3092z"/>
   <path id="_130751400" class="fil0" d="M117.8 171.245c0.3075,-0.1193 0.8698,-0.254 1.27,-0.254l1.524 0 0 -0.762 -1.778 0c-0.8757,0 -0.9835,0.1879 -1.778,0.254 0,1.2579 0.0304,2.2768 1.016,2.54l-0.254 -1.778z"/>
   <polygon id="_40287816" class="fil0" points="126.944,171.499 126.182,171.499 126.182,172.261 126.944,172.261 "/>
   <path id="_40740168" class="fil0" d="M97.2263 173.277l0.762 0 2.7895 0.29 0.0045 -1.052c0,-0.523 -0.1874,-0.8338 -0.762,-0.762l-2.794 0.254 0 1.27z"/>
   <path id="_40453520" class="fil0" d="M94.4323 172.261l-1.778 0c0.0914,0.7127 -0.0298,1.016 0.762,1.016l1.524 0 -0.2229 1.783c1.181,-0.1376 0.3974,0.3433 0.9849,-0.767l-0.3151 -1.5118c-0.3973,-0.3192 -0.3854,-0.5202 -0.9549,-0.5202z"/>
   <path id="_40920072" class="fil0" d="M89.6063 174.039c0.4238,0.8065 0.1201,1.1442 1.27,1.27 -0.2208,-0.827 -0.443,-1.0492 -1.27,-1.27z"/>
   <path id="_41648832" class="fil0" d="M86.8123 175.817c1.0865,0 1.27,-1.3969 1.27,-2.54l1.27 0 0 -0.508 -1.016 0 -3.806 0.297 -0.004 0.465 2.032 0 -0.7635 2.2854 1.0175 0.0006z"/>
   <path id="_129937200" class="fil0" d="M82.2403 175.817c0,-0.6484 -0.9728,-0.9981 -1.778,-1.016l0 1.27c0.5697,0.1327 0.584,0.254 1.27,0.254 0.226,0 0.508,-0.282 0.508,-0.508z"/>
   <path id="_41200744" class="fil0" d="M76.6523 174.547c1.2565,0 0.5318,0.9622 0.508,2.032l0.762 0c1.0056,0 1.568,-3.2005 0.254,-3.048l-3.048 0.254 0 0.762 1.524 0z"/>
   <path id="_40218568" class="fil0" d="M139.39 177.087c0.3559,0 0.508,-0.3463 0.508,-0.762l0 -1.016 -2.286 0c0.0836,1.0041 0.7691,1.778 1.778,1.778z"/>
   <path id="_40921968" class="fil0" d="M71.0643 175.055c-0.2038,0.7631 -1.5425,2.032 0,2.032l0.762 0c0.5853,0 0.762,-0.1767 0.762,-0.762 0,-0.8154 -0.7064,-1.202 -1.524,-1.27z"/>
   <path id="_40401576" class="fil0" d="M66.7463 177.595c1.003,0 1.3537,-0.3212 1.6835,-1.1105 0.53,-1.2684 0.7587,-0.7617 0.8565,-1.9375 -0.5178,0.1382 -3.127,2.5646 -3.302,3.048l0.762 0z"/>
   <polygon id="_40921944" class="fil0" points="63.4397,177.818 61.4721,175.757 60.1826,177.993 61.1668,178.159 "/>
   <path id="_39336568" class="fil0" d="M127.198 176.325l-3.048 0c0.0938,1.1273 2.3249,2.9667 3.2115,2.9975l1.6145 -3.2515c-0.7945,0.0661 -0.9023,0.254 -1.778,0.254z"/>
   <polygon id="_130208576" class="fil0" points="109.659,177.708 113.318,180.854 113.361,180.586 114.743,177.243 "/>
   <path id="_40700080" class="fil0" d="M141.676 177.341l0 2.54 1.7952 0.1002 3.2848 -0.6082c-0.3473,-1.4907 -1.7983,-3.81 -3.048,-3.81 -0.7661,0 -2.032,1.0357 -2.032,1.778z"/>
   <path id="_41189344" class="fil1" d="M40.5843 173.277l3.556 0 0 2.286c0,3.2916 1.5589,4.1129 -2.0319,4.0641 -2.4241,-0.033 -3.5481,0.5079 -5.8421,0.5079l0 0.508 -0.508 0 0.7996 0.4008 -2.0696 0.3612 12.446 -0.762c1.0142,-0.0842 0.0864,-0.3884 1.524,-0.508l0 -0.508 -0.508 0 1.1955 -1.65 -1.0498 -0.3643 0.1663 -0.3282 -0.82 -0.9595 -1.1872 0.8718 -0.5908 -4.6818 -0.2851 1.0061 -0.4769 0.0099 0 -0.508 -4.318 0.254z"/>
   <path id="_130501416" class="fil0" d="M36.2663 180.135c2.294,0 3.418,-0.5409 5.8421,-0.5079 3.5908,0.0488 2.0319,-0.7725 2.0319,-4.0641l0 -2.286 -3.556 0 -6.6351 0.8213c0.0311,1.8886 0.3104,2.4152 0.2847,4.0051 -0.0361,2.2407 -0.1606,2.0316 2.0324,2.0316z"/>
   <path id="_129936440" class="fil0" d="M129.484 173.531c-3.4505,0 -25.092,1.6534 -26.416,2.54l-2.0219 -0.3173 -1.7881 0.0633 -9.1413 0.7895c-0.2674,0.3678 -0.3394,0.7345 -1.0187,0.7345l-0.508 0c-0.5695,0 -0.5576,-0.201 -1.016,-0.508 -3.9756,0 -9.2412,0.8237 -12.9719,1.2521 -4.3343,0.4978 -8.4981,0.7799 -12.6821,0.7799 -0.1349,0 -0.5575,0.3659 -0.762,0.508l-12.7 0.762c-1.4376,0.1196 -0.5098,0.4238 -1.524,0.508l-12.446 0.762 -1.524 0.254 -3.5376 0.2931 -1.2884 0.4689 0 1.016 3.048 0c0.5695,0 0.5576,-0.201 1.016,-0.508 2.1166,0.4931 11.8595,-0.8455 14.986,-1.016 2.1904,-0.1195 14.5296,-1.8049 14.744,-1.8679l4.56 0.5979c0.0309,1.3891 3.2206,3.7799 4.4089,3.7169l1.9369 -3.5317 -5.8378 0.3228c0.1341,-1.6111 4.1319,-1.4549 5.8513,-1.5147 0.6776,-0.0235 2.5881,-0.3295 3.0745,-0.4816 2.0934,-0.6547 1.7953,0.0961 3.2656,-0.042l29.7274 -2.6173 9.863 -0.7362 3.5902 -0.1962 1.7636 -0.1407 15.5475 -1.3649 0.4689 -1.2884 -3.7952 0.1549 -6.8728 0.6071z"/>
   <path id="_41706152" class="fil0" d="M81.7402 179.968c0.228,0.7968 2.0617,2.7072 3.0401,2.7072 0.7109,0 2.4643,-2.6101 2.5481,-3.213l-5.5882 0.5058z"/>
   <path id="_41437776" class="fil0" d="M129.738 180.643c0,0.3559 0.3463,0.508 0.762,0.508l0.5221 0.1097 7.8599 -1.1257c-0.9951,-3.7268 -9.144,-4.6843 -9.144,0.508z"/>
   <polygon id="_40358528" class="fil0" points="95.7099,178.702 99.5876,182.568 102.058,178.168 "/>
   <path id="_40305856" class="fil0" d="M115.768 181.913c0,0.8996 8.3348,-0.254 9.906,-0.254 -0.0372,-1.669 -3.1984,-3.81 -4.826,-3.81 -0.6595,0 -2.6147,1.0821 -3.1697,1.4023 -1.0911,0.6296 -1.9103,1.0017 -1.9103,2.6617z"/>
   <path id="_130904832" class="fil0" d="M101.798 183.437l10.16 -0.762c-0.2822,-2.5794 -8.4332,-5.705 -10.16,0.762z"/>
   <path id="_130552176" class="fil0" d="M87.0663 184.453l8.636 -0.508 2.032 0c-0.1282,-1.5402 -4.0931,-3.81 -5.588,-3.81 -1.7333,0 -4.6276,2.6236 -5.08,4.318z"/>
   <path id="_40671912" class="fil0" d="M73.6043 185.215c0,0.4906 0.4529,1.016 0.762,1.016 0.5695,0 0.5576,-0.201 1.0167,-0.5004l8.1273 -0.7696c-0.3346,-1.4361 -3.1629,-3.556 -4.572,-3.556l-0.508 0c-2.0307,0 -4.826,1.8096 -4.826,3.81z"/>
   <path id="_41652200" class="fil0" d="M37.5406 183.985c0.1619,0.5825 2.383,2.246 2.5357,2.246 1.0133,0 1.8128,-1.719 2.032,-2.54l-1.2763 -0.0585 -3.2914 0.3525z"/>
   <polygon id="_129441736" class="fil0" points="50.7501,182.752 55.6481,186.479 55.7295,186.183 57.6074,182.235 "/>
   <path id="_130574728" class="fil0" d="M27.1223 185.723c1.0782,0.2879 0.4444,0.508 1.27,0.508 0.8772,0 1.1013,-0.8001 1.2591,-1.5811l-1.2614 0.3202 -1.2677 -0.2631 0 1.016z"/>
   <path id="_129664352" class="fil0" d="M58.6183 186.993l10.414 -0.762 0 -0.762c-1.5998,-0.4272 -3.2503,-2.54 -6.096,-2.54l-0.254 0c-1.4881,0 -4.064,2.0385 -4.064,4.064z"/>
   <path id="_130872992" class="fil0" d="M48.4583 184.453l-1.2263 -0.1597 -2.9936 1.3874 -0.1264 -0.2246 -1.2273 2.6979 0.2534 0.2583 9.3842 -0.9113 0.762 0c-0.2398,-0.8981 -3.7587,-3.4672 -4.826,-3.556l0 0.508z"/>
   <path id="_130872968" class="fil0" d="M30.1703 189.533l8.89 -0.762c-0.1226,-1.4737 -3.3646,-3.302 -4.064,-3.302l-1.016 0c-1.2426,0 -3.5123,2.7863 -3.81,4.064z"/>
   <path id="_130722248" class="fil0" d="M22.0423 189.787c0,0.496 5.334,0.7041 5.334,-0.508 0,-1.0184 -1.5714,-2.286 -2.794,-2.286l-0.254 0c-0.985,0 -2.286,1.8372 -2.286,2.794z"/>
   <path id="_129772032" class="fil0" d="M139.634 183.357l-43.2002 3.0909 -0.7467 0.3575 -50.5613 3.9605 -0.7314 0.5448c-2.1522,-0.1791 -10.0932,0.4103 -13.1963,0.7737 -2.3638,0.2769 -2.9796,0.7535 -6.6157,0.7503 -1.753,-0.0015 -5.842,0.0469 -5.842,1.524l0 0.508c0,1.4557 3.76,0.762 5.08,0.762l0 -0.508 1.778 0c10.5686,0 21.1301,-2.5498 31.2483,-2.5337 1.9557,0.0031 5.0303,-0.673 7.6223,-0.7597 2.3202,-0.0775 5.3449,-0.6924 7.6017,-0.7803 5.6759,-0.2209 10.4034,-1.0713 15.7647,-1.2533 4.8766,-0.1657 10.9942,-1.2412 15.48,-1.284 5.0315,-0.048 10.854,-1.1007 15.7457,-1.2723 10.4936,-0.3682 21.2217,-2.2767 31.5053,-2.2767l0 -0.508 0.508 0 0 -1.016c0,-0.686 -0.1213,-0.7003 -0.254,-1.27l-1.5337 -0.0743 -9.6527 1.2646z"/>
   <path id="_129773304" class="fil1" d="M22.0423 189.787c0,-0.9568 1.301,-2.794 2.286,-2.794l0.254 0c1.2226,0 2.794,1.2676 2.794,2.286 0,1.2121 -5.334,1.004 -5.334,0.508zm8.128 -0.254c0.2977,-1.2777 2.5674,-4.064 3.81,-4.064l1.016 0c0.6994,0 3.9414,1.8283 4.064,3.302l-8.89 0.762zm18.288 -5.588c1.0673,0.0888 4.5862,2.6579 4.826,3.556l-0.762 0 -9.3842 0.9113 -0.2534 -0.2583 1.2273 -2.6979 0.1264 0.2246 2.9936 -1.3874 1.2263 0.1597 0 -0.508zm10.16 3.048c0,-2.0255 2.5759,-4.064 4.064,-4.064l0.254 0c2.8457,0 4.4962,2.1128 6.096,2.54l0 0.762 -10.414 0.762zm-31.496 -2.286l1.2677 0.2631 1.2614 -0.3202c-0.1578,0.781 -0.3819,1.5811 -1.2591,1.5811 -0.8256,0 -0.1918,-0.2201 -1.27,-0.508l0 -1.016zm46.482 0.508c0,-2.0004 2.7953,-3.81 4.826,-3.81l0.508 0c1.4091,0 4.2374,2.1199 4.572,3.556l-8.1273 0.7696c-0.4591,0.2994 -0.4472,0.5004 -1.0167,0.5004 -0.3091,0 -0.762,-0.5254 -0.762,-1.016zm75.6823 -3.1223l1.5337 0.0743c0.1327,0.5697 0.254,0.584 0.254,1.27l0 1.016 -0.508 0 0 0.508c-10.2836,0 -21.0117,1.9085 -31.5053,2.2767 -4.8917,0.1716 -10.7142,1.2243 -15.7457,1.2723 -4.4858,0.0428 -10.6034,1.1183 -15.48,1.284 -5.3613,0.182 -10.0888,1.0324 -15.7647,1.2533 -2.2568,0.0879 -5.2815,0.7028 -7.6017,0.7803 -2.592,0.0867 -5.6666,0.7628 -7.6223,0.7597 -10.1182,-0.0161 -20.6797,2.5337 -31.2483,2.5337l-1.778 0 0 0.508c-1.32,0 -5.08,0.6937 -5.08,-0.762l0 -0.508c0,-1.4771 4.089,-1.5255 5.842,-1.524 3.6361,0.0032 4.2519,-0.4734 6.6157,-0.7503 3.1031,-0.3634 11.0441,-0.9528 13.1963,-0.7737l0.7314 -0.5448 50.5613 -3.9605 0.7467 -0.3575 43.2002 -3.0909 9.6527 -1.2646zm-108.455 1.5398l1.2763 0.0585c-0.2192,0.821 -1.0187,2.54 -2.032,2.54 -0.1527,0 -2.3738,-1.6635 -2.5357,-2.246l3.2914 -0.3525zm46.2343 0.8205c0.4524,-1.6944 3.3467,-4.318 5.08,-4.318 1.4949,0 5.4598,2.2698 5.588,3.81l-2.032 0 -8.636 0.508zm-29.4589 -2.218l-1.8779 3.9483 -0.0814 0.2958 -4.898 -3.7272 6.8573 -0.5169zm44.1909 1.202c1.7268,-6.467 9.8778,-3.3414 10.16,-0.762l-10.16 0.762zm13.97 -1.524c0,-1.66 0.8192,-2.0321 1.9103,-2.6617 0.555,-0.3202 2.5102,-1.4023 3.1697,-1.4023 1.6276,0 4.7888,2.141 4.826,3.81 -1.5712,0 -9.906,1.1536 -9.906,0.254zm13.97 -1.27c0,-5.1923 8.1489,-4.2348 9.144,-0.508l-7.8599 1.1257 -0.5221 -0.1097c-0.4157,0 -0.762,-0.1521 -0.762,-0.508zm-42.4099 -1.181c-0.0838,0.6029 -1.8372,3.213 -2.5481,3.213 -0.9784,0 -2.8121,-1.9104 -3.0401,-2.7072l5.5882 -0.5058zm54.3479 -2.121c0,-0.7423 1.2659,-1.778 2.032,-1.778 1.2497,0 2.7007,2.3193 3.048,3.81l-3.2848 0.6082 -1.7952 -0.1002 0 -2.54zm-39.6185 0.8273l-2.4702 4.3995 -3.8777 -3.8659 6.3479 -0.5336zm12.6855 -0.9255l-1.382 3.3436 -0.043 0.2681 -3.6589 -3.1464 5.0839 -0.4653zm12.455 -0.9178c0.8757,0 0.9835,-0.1879 1.778,-0.254l-1.6145 3.2515c-0.8866,-0.0308 -3.1177,-1.8702 -3.2115,-2.9975l3.048 0zm12.7 0c0,0.4157 -0.1521,0.762 -0.508,0.762 -1.0089,0 -1.6944,-0.7739 -1.778,-1.778l2.286 0 0 1.016zm-6.604 -10.414l0.4987 5.8226 -0.2391 0.1424 -4.0696 0.131 1.0114 0.2887 -0.7505 0.2552 0.4884 0.2562 0.0127 0.4699 -0.762 0.254 6.8728 -0.6071 3.7952 -0.1549 -0.4689 1.2884 -15.5475 1.3649 -1.7636 0.1407 -3.5902 0.1962 -9.863 0.7362 -29.7274 2.6173c-1.4703,0.1381 -1.1722,-0.6127 -3.2656,0.042 -0.4864,0.1521 -2.3969,0.4581 -3.0745,0.4816 -1.7194,0.0598 -5.7172,-0.0964 -5.8513,1.5147l5.8378 -0.3228 -1.9369 3.5317c-1.1883,0.063 -4.378,-2.3278 -4.4089,-3.7169l-4.56 -0.5979c-0.2144,0.063 -12.5536,1.7484 -14.744,1.8679 -3.1265,0.1705 -12.8694,1.5091 -14.986,1.016 -0.4584,0.307 -0.4465,0.508 -1.016,0.508l-3.048 0 0 -1.016 1.2884 -0.4689 3.5376 -0.2931 -2.032 0 -0.254 -1.016 -1.524 0 -0.7314 0.5448 -1.3006 -0.0368c-1.8429,1.234 -0.7461,2.3989 -2.404,3.184 -1.9808,0.938 -1.7564,0.4457 -3.2517,2.0823 -0.5287,0.5787 -1.7119,2.7019 -1.9199,3.4141 -0.9397,3.2171 -0.0602,1.0593 -2.5844,2.7496 0,2.3264 -0.8214,3.5956 1.016,4.826l12.1662 -1.2482 0.5338 0.2322c2.2627,0 5.6917,-0.3347 7.564,-0.818 2.293,-0.5918 5.1903,-0.0838 7.876,-0.506 2.3645,-0.3716 5.3616,-0.2573 7.9361,-0.4459 0.9027,-0.0661 2.2342,-0.6772 3.5458,-0.7722 1.2777,-0.0925 2.774,0.0613 4.0758,0.0118 1.6495,-0.0629 5.6228,-0.5891 7.5162,-0.8852 1.8429,-0.2882 5.0471,-0.0773 7.4518,-0.4028 4.4982,-0.6087 10.5478,-0.776 15.0486,-1.4614 9.7904,-1.4909 21.0827,-1.2209 31.1694,-2.3586 4.8679,-0.549 10.789,-0.7382 15.1054,-1.1466 2.1085,-0.1995 5.6307,-0.3459 7.6715,-0.7145 0.8177,-0.1477 2.9403,-0.3902 3.6505,-0.4135 2.5156,-0.0829 1.7204,-0.3309 3.3089,-0.7551l0.3104 -2.2775 -0.0564 -1.2785c0,-0.7173 -0.5828,-0.9799 -1.016,-1.27l-2.54 0 -0.4572 -0.5588 -0.0508 -1.7272c-1.3938,-2.0814 -2.9135,-4.826 -6.35,-4.826 -0.5537,-1.0465 -0.847,-2.794 -2.286,-2.794 -0.7543,0 -0.6794,0.508 -1.778,0.508l-1.524 0c-1.1254,0 -1.2292,-2.998 -1.4225,-4.1655 -0.4931,-2.9763 -0.027,-1.7899 -2.1335,-3.2005l-0.4953 0.2921 1.1688 0.8721 0.0885 0.6138 -0.762 0z"/>
  </g>
 </g>
</svg>
